<?xml version="1.0" encoding="utf-8"?>
<!-- Generator: Adobe Illustrator 24.2.3, SVG Export Plug-In . SVG Version: 6.00 Build 0)  -->
<svg version="1.1" id="Layer_1" xmlns="http://www.w3.org/2000/svg" xmlns:xlink="http://www.w3.org/1999/xlink" x="0px" y="0px"
	 viewBox="0 0 318 114.67" style="enable-background:new 0 0 318 114.67;" xml:space="preserve">
<style type="text/css">
	.st0{fill:#025AA2;}
	.st1{fill:#E6505C;}
	.st2{fill:#FFFFFF;}
</style>
<g>
	<path class="st0" d="M84.87,249.2H67.94l-6.47,46.27h-7.7l6.47-46.27H43.53l1-6.85H85.8L84.87,249.2z"/>
	<path class="st0" d="M120.06,257.9c-2.46,10.93-5.31,20.56-10.86,31.03c-8.39,15.94-15.78,20.56-25.94,22.33l-1.39-5.31
		c5.85-1.39,10.86-3.7,15.78-10.47h-3.54c-2.31,0-4.08-1.39-4.54-3.62l-7.24-33.96h7.85l5.7,30.41c0.15,0.85,0.77,1.31,1.54,1.31
		h3.85c0.46-0.92,1-1.92,1.46-2.93c4.31-8.93,7.31-16.86,9.55-28.8h7.78V257.9z"/>
	<path class="st0" d="M160.8,277.15c-2.39,17.17-8.47,19.33-18.17,19.33c-3.46,0-7.85-0.38-11.86-1c0,2.39-0.15,4.62-0.54,7.16
		l-1.31,8.24h-7.47l7.55-52.97h5.85l-0.38,7.93c4.47-4.47,11.09-8.85,16.48-8.85C159.64,256.98,162.95,261.29,160.8,277.15z
		 M149.25,263.45c-3.31,0-9.01,2.93-14.78,8.24l-2.46,18.56c3.54,0.08,6.39,0.08,7.85,0.08c9.86,0,11.7-1.54,13.4-13.71
		C154.79,265.45,153.79,263.45,149.25,263.45z"/>
	<path class="st0" d="M204.07,269.07c-1.23,7.47-5.54,10.16-14.71,10.86l-13.01,1.15c0,7.55,3.54,9.09,9.47,9.09
		c4.16,0,9.55-0.46,13.86-0.92l0.46,5c-4.08,1.62-11.01,2.16-15.48,2.16c-13.01,0-17.48-6.7-15.63-20.71
		c2-14.63,7.16-18.79,20.79-18.79C202.15,256.9,205.15,261.52,204.07,269.07z M188.67,263.14c-7.7,0-10.24,2.16-11.86,12.4
		l12.55-1.15c4.62-0.31,6.62-1.62,7.24-5.93C197.29,263.29,194.68,263.14,188.67,263.14z"/>
	<path class="st0" d="M243.03,258.91l-1.16,4.62c-3.46-0.23-7.54-0.31-10.01-0.31c-8.7,0-12.32,2.31-13.71,13.71
		c-1.39,11.24,0.92,13.24,9.16,13.24c2.54,0,7.39-0.15,11.32-0.85l0.54,5.08c-4,1.39-8.93,2-13.24,2c-13.32,0-17.56-5.7-15.48-20.02
		c2-14.4,7.31-19.48,20.25-19.48C234.33,256.9,239.57,257.44,243.03,258.91z"/>
	<path class="st0" d="M284.69,258.91l-5.24,36.57h-5.85l0.38-7.01c-3.93,4.47-9.55,7.93-16.25,7.93c-8.85,0-12.24-4.85-10.09-20.17
		c2.39-17.09,8.47-19.33,18.63-19.33C271.83,256.9,279.37,257.75,284.69,258.91z M273.91,281.93l2.62-18.63
		c-3.54-0.08-6.47-0.15-7.93-0.15c-9.93,0-11.7,1.62-13.47,13.63c-1.54,11.17-0.54,13.17,4.16,13.17
		C264.21,289.93,268.52,287.09,273.91,281.93z"/>
	<path class="st0" d="M299.7,284.78c-0.54,3.46,0.62,4.62,4.08,4.62h3.54l0.31,5.85c-1.54,0.69-5.39,0.92-7.16,0.92
		c-5.93,0-9.24-3.62-8.39-10.01l6.31-44.58h7.39L299.7,284.78z"/>
</g>
<rect x="185.46" y="83.51" class="st1" width="97" height="7.29"/>
<g>
	<path class="st2" d="M77.8,27.98l-1.91,7.79H60.74L50.38,78.93h-9.27l10.37-43.16H36.33l1.84-7.79H77.8z"/>
	<path class="st2" d="M108.54,40.48c-0.98,2.79-2.06,5.7-3.24,8.71c-1.18,3.01-2.49,6.04-3.94,9.08c-1.45,3.04-3.01,6.07-4.68,9.08
		s-3.47,5.94-5.38,8.79c-1.42,2.16-2.9,4.23-4.42,6.21c-1.52,1.99-3.18,3.74-4.97,5.26c-1.79,1.52-3.77,2.75-5.93,3.68
		c-2.16,0.93-4.61,1.4-7.36,1.4c-1.52,0-2.88-0.17-4.09-0.51c-1.2-0.34-2.22-0.74-3.05-1.18l2.87-7.13
		c0.69,0.39,1.46,0.71,2.32,0.96c0.86,0.24,1.8,0.37,2.83,0.37c2.3,0,4.33-0.6,6.07-1.8s3.32-2.83,4.75-4.89
		c-1.57-5.44-2.9-11.35-3.98-17.72c-1.08-6.37-1.79-13.14-2.13-20.29h8.97c0.05,2.06,0.16,4.34,0.33,6.84
		c0.17,2.5,0.4,5.06,0.67,7.68c0.27,2.62,0.61,5.21,1,7.76c0.4,2.55,0.84,4.9,1.34,7.06c1.48-2.35,2.85-4.83,4.13-7.43
		c1.28-2.6,2.46-5.18,3.54-7.76c1.08-2.57,2.03-5.07,2.84-7.5s1.51-4.64,2.1-6.65H108.54z"/>
	<path class="st2" d="M145.23,54.3c0,3.48-0.55,6.75-1.65,9.82c-1.1,3.06-2.72,5.75-4.85,8.05c-2.13,2.3-4.73,4.13-7.79,5.48
		c-3.06,1.35-6.58,2.02-10.55,2.02c-0.69,0-1.39-0.04-2.1-0.11c-0.71-0.07-1.41-0.16-2.1-0.26l-3.25,13.24h-8.88l12.13-50.52
		c2.01-0.74,4.25-1.32,6.73-1.76c2.47-0.44,4.96-0.66,7.46-0.66c2.55,0,4.77,0.38,6.65,1.14c1.89,0.76,3.43,1.8,4.63,3.12
		c1.2,1.32,2.1,2.88,2.68,4.67C144.93,50.32,145.23,52.24,145.23,54.3z M117.86,72.02c0.49,0.1,1.01,0.16,1.55,0.18
		c0.54,0.03,1.08,0.04,1.62,0.04c2.36,0,4.48-0.45,6.37-1.36c1.89-0.91,3.5-2.13,4.82-3.68c1.32-1.54,2.34-3.36,3.06-5.44
		c0.71-2.08,1.07-4.3,1.07-6.65c0-1.08-0.12-2.1-0.37-3.05c-0.25-0.96-0.65-1.8-1.21-2.54c-0.56-0.74-1.32-1.32-2.28-1.76
		c-0.96-0.44-2.17-0.66-3.64-0.66c-0.98,0-1.91,0.06-2.79,0.18c-0.88,0.12-1.67,0.28-2.35,0.48L117.86,72.02z"/>
	<path class="st2" d="M150.52,65.04c0-3.28,0.53-6.46,1.58-9.52c1.05-3.06,2.57-5.78,4.56-8.16c1.99-2.38,4.38-4.28,7.17-5.7
		c2.79-1.42,5.93-2.13,9.41-2.13c3.72,0,6.62,0.96,8.68,2.87c2.06,1.91,3.09,4.36,3.09,7.35c0,3.09-0.76,5.59-2.28,7.5
		c-1.52,1.91-3.49,3.41-5.92,4.49c-2.43,1.08-5.17,1.81-8.23,2.21c-3.06,0.39-6.17,0.64-9.3,0.74c-0.05,0.1-0.07,0.2-0.07,0.29v0.74
		c0,4.46,2.82,6.69,8.46,6.69c3.33,0,6.67-0.69,10-2.06l0.74,7.21c-1.18,0.54-2.84,1.08-5,1.62c-2.16,0.54-4.61,0.81-7.35,0.81
		c-2.75,0-5.1-0.39-7.06-1.18c-1.96-0.78-3.57-1.86-4.82-3.23s-2.17-2.95-2.76-4.74C150.82,69.02,150.52,67.1,150.52,65.04z
		 M171.92,46.8c-1.47,0-2.87,0.29-4.19,0.88c-1.32,0.59-2.5,1.4-3.53,2.43c-1.03,1.03-1.93,2.24-2.68,3.64
		c-0.76,1.4-1.31,2.9-1.65,4.52c5.88-0.2,10.16-0.91,12.83-2.13c2.67-1.23,4.01-3.06,4.01-5.52c0-0.98-0.36-1.86-1.07-2.65
		C174.92,47.19,173.68,46.8,171.92,46.8z"/>
	<path class="st2" d="M188.98,64.37c0-3.33,0.53-6.51,1.58-9.52c1.05-3.01,2.56-5.66,4.52-7.94c1.96-2.28,4.36-4.08,7.21-5.4
		c2.84-1.32,6.08-1.99,9.71-1.99c1.91,0,3.66,0.16,5.26,0.48c1.59,0.32,3.1,0.8,4.52,1.43l-3.16,7.13
		c-0.88-0.39-1.86-0.74-2.94-1.03c-1.08-0.29-2.4-0.44-3.97-0.44c-2.11,0-4.01,0.43-5.7,1.29c-1.69,0.86-3.12,2.02-4.3,3.49
		s-2.08,3.21-2.72,5.22c-0.64,2.01-0.96,4.14-0.96,6.4c0,1.28,0.13,2.44,0.4,3.49c0.27,1.05,0.71,1.99,1.32,2.79
		c0.61,0.81,1.46,1.43,2.54,1.88s2.43,0.66,4.04,0.66c1.67,0,3.27-0.22,4.82-0.66c1.54-0.44,2.73-0.88,3.57-1.32l0.74,7.28
		c-1.13,0.54-2.62,1.07-4.49,1.58c-1.86,0.51-3.97,0.77-6.32,0.77c-2.7,0-5.03-0.4-6.99-1.21c-1.96-0.81-3.59-1.91-4.89-3.31
		c-1.3-1.4-2.25-3.04-2.87-4.93C189.29,68.63,188.98,66.58,188.98,64.37z"/>
	<path class="st2" d="M253.91,64.01c-0.15,0.54-0.29,1.42-0.44,2.65c-0.15,1.23-0.22,2.38-0.22,3.46c0,1.42,0.12,2.81,0.37,4.15
		c0.24,1.35,0.64,2.71,1.18,4.08l-7.94,1.18c-0.59-1.18-1.05-2.43-1.4-3.75c-1.23,1.08-2.73,2.05-4.52,2.9
		c-1.79,0.86-3.81,1.29-6.07,1.29c-2.3,0-4.28-0.38-5.92-1.14c-1.64-0.76-2.98-1.81-4.01-3.16c-1.03-1.35-1.79-2.93-2.28-4.74
		c-0.49-1.81-0.74-3.77-0.74-5.88c0-3.58,0.64-6.91,1.91-10c1.27-3.09,3.05-5.76,5.33-8.02c2.28-2.25,4.99-4.03,8.12-5.33
		c3.14-1.3,6.57-1.95,10.29-1.95c1.91,0,3.84,0.16,5.77,0.48c1.94,0.32,3.88,0.92,5.85,1.8L253.91,64.01z M249.07,47.39
		c-0.93-0.2-1.99-0.29-3.17-0.29c-2.21,0-4.25,0.48-6.11,1.43c-1.86,0.96-3.47,2.23-4.82,3.82c-1.35,1.59-2.39,3.42-3.13,5.48
		c-0.74,2.06-1.1,4.22-1.1,6.47c0,1.13,0.1,2.18,0.29,3.16c0.2,0.98,0.53,1.84,0.99,2.57s1.09,1.32,1.88,1.77
		c0.78,0.44,1.79,0.66,3.01,0.66c1.57,0,2.95-0.33,4.16-0.99c1.2-0.66,2.32-1.56,3.35-2.68c0.05-1.27,0.16-2.47,0.33-3.6
		c0.17-1.13,0.41-2.25,0.7-3.38L249.07,47.39z"/>
	<path class="st2" d="M276.04,79.67c-2.3-0.05-4.25-0.34-5.85-0.88c-1.59-0.54-2.87-1.27-3.82-2.21c-0.96-0.93-1.64-2.03-2.06-3.31
		c-0.42-1.27-0.62-2.67-0.62-4.19c0-1.57,0.18-3.22,0.55-4.96c0.37-1.74,0.77-3.47,1.21-5.18l8.53-35.59l9.26-1.47
		c-1.53,6.42-3.06,12.81-4.59,19.15c-1.53,6.35-3.09,12.73-4.67,19.15c-0.23,1.03-0.49,2.05-0.77,3.05s-0.42,2-0.42,2.98
		c0,0.83,0.01,1.61,0.04,2.32c0.02,0.71,0.22,1.32,0.59,1.84c0.37,0.51,0.92,0.94,1.65,1.29c0.74,0.34,1.69,0.56,2.87,0.66
		L276.04,79.67z"/>
</g>
</svg>
