<?xml version="1.0" encoding="utf-8"?>
<!-- Generator: Adobe Illustrator 24.2.3, SVG Export Plug-In . SVG Version: 6.00 Build 0)  -->
<svg version="1.1" id="Layer_1" xmlns="http://www.w3.org/2000/svg" xmlns:xlink="http://www.w3.org/1999/xlink" x="0px" y="0px"
	 viewBox="0 0 750 500" style="enable-background:new 0 0 750 500;" xml:space="preserve">
<style type="text/css">
	.st0{opacity:0.6;fill:#BDE7FF;enable-background:new    ;}
	.st1{fill:#91D1E2;}
	.st2{opacity:0.5;fill:#91D1E2;enable-background:new    ;}
	.st3{opacity:0.25;fill:#91D1E2;enable-background:new    ;}
	.st4{fill:#025AA2;}
	.st5{fill:#FFFFFF;}
	.st6{opacity:0.5;}
	.st7{opacity:0.7;}
	.st8{fill:#ACE2F9;}
	.st9{opacity:0.5;fill:#11AFD3;enable-background:new    ;}
	.st10{opacity:0.8;fill:#FFFFFF;enable-background:new    ;}
	.st11{opacity:0.7;fill:#ACE2F9;enable-background:new    ;}
	.st12{fill:#E6F7FF;}
	.st13{fill:none;stroke:#FFFFFF;stroke-width:1.6843;stroke-linecap:round;stroke-linejoin:round;stroke-miterlimit:10;}
	.st14{fill:#E6505C;}
	.st15{fill:none;stroke:#FFFFFF;stroke-width:1.9781;stroke-linecap:round;stroke-linejoin:round;stroke-miterlimit:10;}
	.st16{fill:none;stroke:#FFFFFF;stroke-width:2.017;stroke-linecap:round;stroke-linejoin:round;stroke-miterlimit:10;}
	.st17{opacity:0.25;}
	.st18{fill:#2A507A;}
	.st19{fill:none;stroke:#2A507A;stroke-width:1.3019;stroke-miterlimit:10;}
	.st20{fill:none;stroke:#2A507A;stroke-width:5.4139;stroke-linecap:round;stroke-miterlimit:10;}
	.st21{fill:none;stroke:#2A507A;stroke-width:3.9056;stroke-linecap:round;stroke-linejoin:round;stroke-miterlimit:10;}
	.st22{fill:none;stroke:#ACE2F9;stroke-width:1.3019;stroke-miterlimit:10;}
	.st23{fill:#BDE7FF;}
	.st24{fill:none;stroke:#192469;stroke-width:5.4139;stroke-linecap:round;stroke-miterlimit:10;}
	.st25{fill:none;stroke:#E6505C;stroke-width:3.9056;stroke-linecap:round;stroke-linejoin:round;stroke-miterlimit:10;}
	.st26{fill:none;stroke:#2A507A;stroke-width:1.0828;stroke-miterlimit:10;}
	.st27{opacity:0.7;fill:#2A507A;enable-background:new    ;}
	.st28{fill:none;stroke:#2A507A;stroke-width:3.2483;stroke-linecap:round;stroke-miterlimit:10;}
	.st29{fill:#C13D4C;}
	.st30{fill:none;stroke:#101747;stroke-width:1.0828;stroke-miterlimit:10;}
	.st31{opacity:0.3;}
	.st32{fill:none;stroke:#101747;stroke-width:3.2483;stroke-linecap:round;stroke-miterlimit:10;}
	.st33{fill:#192469;}
	.st34{fill:#FDAEB3;}
	.st35{fill:#004BA8;}
	.st36{fill:#003977;}
	.st37{fill:#E58099;}
	.st38{fill:#1D2468;}
	.st39{fill:#FCAE24;}
	.st40{fill:#FECB22;}
	.st41{fill:#FFD664;}
	.st42{fill:none;stroke:#FFFFFF;stroke-width:0.2469;stroke-linecap:round;stroke-miterlimit:10;}
	.st43{fill:#423D73;}
	.st44{fill:#332F62;}
	.st45{fill:#FAC12A;}
	.st46{fill:#9E9DBA;}
	.st47{opacity:0.45;fill:url(#SVGID_1_);enable-background:new    ;}
	.st48{fill:#7FD2EF;}
	.st49{fill:#46BFE0;}
	.st50{fill:#F29127;}
	.st51{opacity:0.47;fill:url(#SVGID_2_);enable-background:new    ;}
</style>
<g id="OBJECTS">
	<g>
		<g id="XMLID_84_">
			<path id="XMLID_147_" class="st0" d="M121.88,439.16c0,0-38.9-52.74,18.57-100.81c23.09-19.32,112.92-32.92,37.4-140.67
				c-44.41-63.35,20.1-155.64,123.05-97.04c87.62,49.87,148.56-56.32,226.14-63.37c59.01-5.36,94.5,67.41,58.9,123.99
				c-39.94,63.48,36.22,52.82,52.77,73.84c29.15,37-65.45,80.92-22.05,127.92c44.19,47.86,13.89,76.15,13.89,76.15H121.88V439.16z"
				/>
			<path id="XMLID_145_" class="st1" d="M561.6,440.66H107.23c-0.9,0-1.62-0.73-1.62-1.62l0,0c0-0.9,0.73-1.62,1.62-1.62H561.6
				c0.9,0,1.62,0.73,1.62,1.62l0,0C563.22,439.94,562.49,440.66,561.6,440.66z"/>
			<path id="XMLID_110_" class="st1" d="M635.42,440.66h-68.41c-0.9,0-1.62-0.73-1.62-1.62l0,0c0-0.9,0.73-1.62,1.62-1.62h68.41
				c0.9,0,1.62,0.73,1.62,1.62l0,0C637.05,439.94,636.32,440.66,635.42,440.66z"/>
			<path id="XMLID_107_" class="st2" d="M376.92,449.32H182.11c-0.9,0-1.62-0.73-1.62-1.62l0,0c0-0.9,0.73-1.62,1.62-1.62h194.81
				c0.9,0,1.62,0.73,1.62,1.62l0,0C378.54,448.59,377.82,449.32,376.92,449.32z"/>
			<path id="XMLID_104_" class="st2" d="M514.98,449.32H384.7c-0.9,0-1.62-0.73-1.62-1.62l0,0c0-0.9,0.73-1.62,1.62-1.62h130.28
				c0.9,0,1.62,0.73,1.62,1.62l0,0C516.6,448.59,515.88,449.32,514.98,449.32z"/>
			<path id="XMLID_103_" class="st3" d="M491.94,458.43H258.47c-0.9,0-1.62-0.73-1.62-1.62l0,0c0-0.9,0.73-1.62,1.62-1.62h233.47
				c0.9,0,1.62,0.73,1.62,1.62l0,0C493.57,457.71,492.84,458.43,491.94,458.43z"/>
			<path id="XMLID_99_" class="st3" d="M553.51,458.43h-52.94c-0.9,0-1.62-0.73-1.62-1.62l0,0c0-0.9,0.73-1.62,1.62-1.62h52.94
				c0.9,0,1.62,0.73,1.62,1.62l0,0C555.13,457.71,554.4,458.43,553.51,458.43z"/>
		</g>
		<g id="XMLID_512_">
			<g id="XMLID_543_">
				<g>
					<path id="XMLID_113_" class="st4" d="M563.59,170.78v-12.33h-5.26c-1.02-6.86-3.72-13.18-7.67-18.51l3.73-3.73l-8.72-8.72
						l-3.73,3.73c-5.34-3.95-11.65-6.65-18.51-7.67v-5.27H511.1v5.27c-6.86,1.02-13.18,3.72-18.51,7.67l-3.73-3.73l-8.72,8.72
						l3.73,3.73c-3.95,5.34-6.65,11.65-7.67,18.51h-5.27v12.33h5.27c1.02,6.86,3.72,13.18,7.67,18.51l-3.73,3.73l8.72,8.72
						l3.73-3.73c5.34,3.95,11.65,6.65,18.51,7.67v5.26h12.33v-5.27c6.86-1.02,13.18-3.72,18.51-7.67l3.73,3.73l8.72-8.72l-3.73-3.73
						c3.95-5.33,6.65-11.65,7.67-18.51h5.26V170.78z M548.32,161.52c1.89,19.65-14.47,36.02-34.11,34.16
						c-14.3-1.35-26.07-12.7-27.9-26.95c-2.62-20.42,14.55-37.64,34.99-35.07C535.56,135.45,546.95,147.21,548.32,161.52z"/>
					<ellipse id="XMLID_112_" class="st4" cx="517.25" cy="164.61" rx="21.62" ry="21.62"/>
				</g>
			</g>
			<g id="XMLID_538_">
				<g>
					<path id="XMLID_121_" class="st5" d="M591.52,130.35v-5.04h-2.15c-0.42-2.8-1.52-5.39-3.14-7.57l1.52-1.52l-3.56-3.56
						l-1.52,1.52c-2.18-1.61-4.76-2.72-7.57-3.14v-2.15h-5.04v2.15c-2.81,0.42-5.39,1.52-7.57,3.14l-1.52-1.52l-3.56,3.56l1.52,1.52
						c-1.61,2.18-2.72,4.76-3.14,7.57h-2.15v5.04h2.15c0.42,2.81,1.52,5.39,3.14,7.57l-1.52,1.52l3.56,3.56l1.52-1.52
						c2.18,1.61,4.76,2.72,7.57,3.14v2.15h5.04v-2.15c2.81-0.42,5.39-1.52,7.57-3.14l1.52,1.52l3.56-3.56l-1.52-1.52
						c1.61-2.18,2.72-4.76,3.14-7.57H591.52z M585.28,126.57c0.77,8.03-5.91,14.72-13.94,13.96c-5.85-0.55-10.66-5.19-11.4-11.02
						c-1.07-8.35,5.95-15.39,14.3-14.33C580.06,115.91,584.72,120.72,585.28,126.57z"/>
					<path id="XMLID_117_" class="st5" d="M581.42,127.83c0,4.88-3.96,8.84-8.84,8.84s-8.84-3.96-8.84-8.84
						c0-4.88,3.96-8.84,8.84-8.84S581.42,122.95,581.42,127.83z"/>
				</g>
			</g>
			<g id="XMLID_535_" class="st6">
				<g>
					<path id="XMLID_56_" class="st5" d="M215.8,364.3c-4.54-5.99-11.71-9.87-19.8-9.86c-13.13,0.02-24.24,10.71-24.75,23.83
						c-0.55,14.15,10.76,25.79,24.79,25.79c8.44,0,15.89-4.23,20.37-10.67l-20.37-14.14L215.8,364.3z"/>
					<g id="XMLID_55_">
						<path class="st5" d="M221.62,364.3l-19.76,14.95l20.37,14.14c2.79-4.01,4.43-8.88,4.43-14.14
							C226.67,373.62,224.78,368.46,221.62,364.3z"/>
					</g>
				</g>
			</g>
			<g class="st7">
				<path id="XMLID_532_" class="st8" d="M207.91,183.52c-18.88,0-34.24-15.36-34.24-34.24s15.36-34.24,34.24-34.24
					s34.24,15.36,34.24,34.24C242.15,168.15,226.79,183.52,207.91,183.52z M207.91,120.31c-15.97,0-28.96,12.99-28.96,28.96
					s12.99,28.96,28.96,28.96s28.96-12.99,28.96-28.96S223.88,120.31,207.91,120.31z"/>
				<path id="XMLID_530_" class="st8" d="M228.84,149.27L228.84,149.27c0-0.95,0.78-1.73,1.73-1.73h2.97c0.95,0,1.73,0.78,1.73,1.73
					l0,0c0,0.95-0.78,1.73-1.73,1.73h-2.97C229.62,151.01,228.84,150.23,228.84,149.27z"/>
				<path id="XMLID_529_" class="st8" d="M180.54,149.27L180.54,149.27c0-0.95,0.78-1.73,1.73-1.73h2.97c0.95,0,1.73,0.78,1.73,1.73
					l0,0c0,0.95-0.78,1.73-1.73,1.73h-2.97C181.32,151.01,180.54,150.23,180.54,149.27z"/>
				<path id="XMLID_527_" class="st8" d="M207.91,170.21L207.91,170.21c0.95,0,1.73,0.78,1.73,1.73v2.97c0,0.95-0.78,1.73-1.73,1.73
					l0,0c-0.95,0-1.73-0.78-1.73-1.73v-2.97C206.18,170.99,206.96,170.21,207.91,170.21z"/>
				<path id="XMLID_526_" class="st8" d="M207.91,121.9L207.91,121.9c0.95,0,1.73,0.78,1.73,1.73v2.97c0,0.95-0.78,1.73-1.73,1.73
					l0,0c-0.95,0-1.73-0.78-1.73-1.73v-2.97C206.18,122.68,206.96,121.9,207.91,121.9z"/>
				<path id="XMLID_524_" class="st8" d="M193.11,164.07L193.11,164.07c0.67,0.67,0.67,1.78,0,2.45l-2.1,2.1
					c-0.67,0.67-1.78,0.67-2.45,0l0,0c-0.67-0.67-0.67-1.78,0-2.45l2.1-2.1C191.33,163.4,192.43,163.4,193.11,164.07z"/>
				<path id="XMLID_523_" class="st8" d="M227.26,129.92L227.26,129.92c0.67,0.67,0.67,1.78,0,2.45l-2.1,2.1
					c-0.67,0.67-1.78,0.67-2.45,0l0,0c-0.67-0.67-0.67-1.78,0-2.45l2.1-2.1C225.49,129.24,226.59,129.24,227.26,129.92z"/>
				<path id="XMLID_521_" class="st8" d="M193.11,134.47L193.11,134.47c-0.67,0.67-1.78,0.67-2.45,0l-2.1-2.1
					c-0.67-0.67-0.67-1.78,0-2.45l0,0c0.67-0.67,1.78-0.67,2.45,0l2.1,2.1C193.78,132.69,193.78,133.8,193.11,134.47z"/>
				<path id="XMLID_520_" class="st8" d="M227.26,168.63L227.26,168.63c-0.67,0.67-1.78,0.67-2.45,0l-2.1-2.1
					c-0.67-0.67-0.67-1.78,0-2.45l0,0c0.67-0.67,1.78-0.67,2.45,0l2.1,2.1C227.94,166.85,227.94,167.95,227.26,168.63z"/>
				<path id="XMLID_517_" class="st8" d="M210.74,149.27c0,1.56-1.27,2.83-2.83,2.83s-2.83-1.27-2.83-2.83s1.27-2.83,2.83-2.83
					S210.74,147.71,210.74,149.27z"/>
				<path id="XMLID_516_" class="st8" d="M207.91,145.72L207.91,145.72c-0.3,0-0.55-0.25-0.55-0.55V130.7c0-0.3,0.25-0.55,0.55-0.55
					l0,0c0.3,0,0.55,0.25,0.55,0.55v14.48C208.46,145.48,208.21,145.72,207.91,145.72z"/>
				<path id="XMLID_515_" class="st8" d="M211.82,149.27L211.82,149.27c0-0.3,0.25-0.55,0.55-0.55h9.56c0.3,0,0.55,0.25,0.55,0.55
					l0,0c0,0.3-0.25,0.55-0.55,0.55h-9.56C212.06,149.82,211.82,149.58,211.82,149.27z"/>
			</g>
			<path id="XMLID_81_" class="st9" d="M577.26,246.67h-4.12v-4.12c0-0.67-0.54-1.21-1.21-1.21c-0.67,0-1.21,0.54-1.21,1.21v4.12
				h-4.12c-0.67,0-1.21,0.54-1.21,1.21c0,0.67,0.54,1.21,1.21,1.21h4.12v4.12c0,0.67,0.54,1.21,1.21,1.21
				c0.67,0,1.21-0.54,1.21-1.21v-4.12h4.12c0.67,0,1.21-0.54,1.21-1.21C578.46,247.21,577.92,246.67,577.26,246.67z"/>
			<path id="XMLID_80_" class="st5" d="M203.27,337.15h-4.12v-4.12c0-0.67-0.54-1.21-1.21-1.21c-0.67,0-1.21,0.54-1.21,1.21v4.12
				h-4.12c-0.67,0-1.21,0.54-1.21,1.21c0,0.67,0.54,1.21,1.21,1.21h4.12v4.12c0,0.67,0.54,1.21,1.21,1.21
				c0.67,0,1.21-0.54,1.21-1.21v-4.12h4.12c0.67,0,1.21-0.54,1.21-1.21C204.47,337.69,203.93,337.15,203.27,337.15z"/>
			<path id="XMLID_29_" class="st5" d="M140.53,421.32h-2.7v-2.7c0-0.44-0.35-0.79-0.79-0.79c-0.44,0-0.79,0.35-0.79,0.79v2.7h-2.7
				c-0.44,0-0.79,0.35-0.79,0.79s0.35,0.79,0.79,0.79h2.7v2.7c0,0.44,0.35,0.79,0.79,0.79c0.44,0,0.79-0.35,0.79-0.79v-2.7h2.7
				c0.44,0,0.79-0.35,0.79-0.79C141.32,421.67,140.97,421.32,140.53,421.32z"/>
			<path id="XMLID_78_" class="st9" d="M234.82,63.99h-4.12v-4.12c0-0.67-0.54-1.21-1.21-1.21c-0.67,0-1.21,0.54-1.21,1.21v4.12
				h-4.12c-0.67,0-1.21,0.54-1.21,1.21c0,0.67,0.54,1.21,1.21,1.21h4.12v4.12c0,0.67,0.54,1.21,1.21,1.21
				c0.67,0,1.21-0.54,1.21-1.21V66.4h4.12c0.67,0,1.21-0.54,1.21-1.21C236.03,64.53,235.49,63.99,234.82,63.99z"/>
			<path id="XMLID_77_" class="st10" d="M297.4,353.21h-4.12v-4.12c0-0.67-0.54-1.21-1.21-1.21c-0.67,0-1.21,0.54-1.21,1.21v4.12
				h-4.12c-0.67,0-1.21,0.54-1.21,1.21c0,0.67,0.54,1.21,1.21,1.21h4.12v4.12c0,0.67,0.54,1.21,1.21,1.21
				c0.67,0,1.21-0.54,1.21-1.21v-4.12h4.12c0.67,0,1.21-0.54,1.21-1.21C298.6,353.75,298.06,353.21,297.4,353.21z"/>
			<path id="XMLID_73_" class="st4" d="M441.32,62.68h-4.12v-4.12c0-0.67-0.54-1.21-1.21-1.21c-0.67,0-1.21,0.54-1.21,1.21v4.12
				h-4.12c-0.67,0-1.21,0.54-1.21,1.21s0.54,1.21,1.21,1.21h4.12v4.12c0,0.67,0.54,1.21,1.21,1.21c0.67,0,1.21-0.54,1.21-1.21V65.1
				h4.12c0.67,0,1.21-0.54,1.21-1.21S441.99,62.68,441.32,62.68z"/>
			<path id="XMLID_38_" class="st0" d="M322.39,80.45h-2.34v-2.34c0-0.38-0.31-0.68-0.68-0.68c-0.38,0-0.68,0.31-0.68,0.68v2.34
				h-2.34c-0.38,0-0.68,0.31-0.68,0.68s0.31,0.68,0.68,0.68h2.34v2.34c0,0.38,0.31,0.68,0.68,0.68c0.38,0,0.68-0.31,0.68-0.68v-2.34
				h2.34c0.38,0,0.68-0.31,0.68-0.68S322.77,80.45,322.39,80.45z"/>
			<path id="XMLID_72_" class="st10" d="M320.29,412.76c-1.53,0-2.95,0.45-4.19,1.17c-0.81-6.82-6.6-12.1-13.63-12.1
				c-5.63,0-10.46,3.39-12.58,8.23c-0.83-0.23-1.68-0.39-2.58-0.39c-5.42,0-9.82,4.4-9.82,9.82s4.4,9.82,9.82,9.82h32.99
				c4.57,0,8.28-3.71,8.28-8.28C328.57,416.47,324.86,412.76,320.29,412.76z"/>
			<path id="XMLID_37_" class="st10" d="M433.31,392.32c-1.53,0-2.95,0.45-4.19,1.17c-0.81-6.82-6.6-12.1-13.63-12.1
				c-5.63,0-10.46,3.39-12.58,8.23c-0.83-0.23-1.68-0.39-2.58-0.39c-5.42,0-9.82,4.4-9.82,9.82s4.4,9.82,9.82,9.82h32.99
				c4.57,0,8.28-3.71,8.28-8.28C441.58,396.03,437.88,392.32,433.31,392.32z"/>
			<path id="XMLID_63_" class="st11" d="M181.13,257.29c-1.14,0-2.19,0.33-3.11,0.87c-0.6-5.06-4.9-8.98-10.12-8.98
				c-4.18,0-7.76,2.51-9.34,6.11c-0.62-0.17-1.25-0.29-1.92-0.29c-4.02,0-7.29,3.26-7.29,7.29s3.26,7.29,7.29,7.29h24.48
				c3.39,0,6.14-2.75,6.14-6.14C187.27,260.03,184.52,257.29,181.13,257.29z"/>
			<g id="XMLID_106_">
				<g>
					<path id="XMLID_120_" class="st12" d="M521.49,84.47c-0.81,2.21-1.89,4.23-3.22,6.05c-6.34,8.76-17.95,12.63-28.61,8.73
						c-7.97-2.92-13.54-9.5-15.5-17.16c-1.2-4.69-1.05-9.77,0.74-14.66c4.7-12.86,18.94-19.48,31.8-14.77l-8.52,23.29l24.39-4.4
						C523.34,75.74,523.06,80.18,521.49,84.47z"/>
					<path id="XMLID_119_" class="st12" d="M526.18,68.22c-1.52-8.38-7.29-15.76-15.87-18.89l-8.52,23.29L526.18,68.22z"/>
					<g id="XMLID_118_">
						<path class="st5" d="M521.49,84.47c-0.81,2.21-1.89,4.23-3.22,6.05l-20.08-14.57l24.39-4.4
							C523.34,75.74,523.06,80.18,521.49,84.47z"/>
					</g>
					<g id="XMLID_116_">
						<path class="st5" d="M506.7,52.66l-8.52,23.29l-24.02,6.14c-1.2-4.69-1.05-9.77,0.74-14.66
							C479.6,54.57,493.84,47.95,506.7,52.66z"/>
					</g>
				</g>
			</g>
			<path id="XMLID_57_" class="st5" d="M558.23,67.32c-1.82,0-3.45,0.79-4.59,2.04l-4.94-3.47c0.23-0.52,0.37-1.1,0.37-1.7
				c0-2.31-1.87-4.18-4.18-4.18s-4.18,1.87-4.18,4.18c0,2.31,1.87,4.18,4.18,4.18c1.13,0,2.14-0.45,2.89-1.17l4.95,3.48
				c-0.46,0.87-0.74,1.84-0.74,2.89c0,1.49,0.54,2.83,1.41,3.9l-2.54,2.65c-0.65-0.42-1.42-0.67-2.25-0.67
				c-2.31,0-4.18,1.87-4.18,4.18s1.87,4.18,4.18,4.18s4.18-1.87,4.18-4.18c0-0.9-0.29-1.73-0.77-2.41l2.53-2.65
				c1.03,0.76,2.3,1.23,3.69,1.23c3.45,0,6.24-2.79,6.24-6.24C564.47,70.12,561.68,67.32,558.23,67.32z"/>
			<g>
				<path class="st4" d="M188.91,297.14c0.04,4.38-3.48,7.96-7.86,8s-7.96-3.48-8-7.86c-0.04-4.38,3.48-7.96,7.86-8
					C185.29,289.24,188.87,292.76,188.91,297.14z"/>
				<polyline class="st13" points="177.5,297.61 180.65,300.61 184.77,294.94 				"/>
			</g>
			<g>
				<path class="st14" d="M606.18,189.65c0.04,5.14-4.09,9.35-9.23,9.39c-5.14,0.04-9.35-4.09-9.39-9.23
					c-0.04-5.14,4.09-9.35,9.23-9.39C601.93,180.38,606.14,184.51,606.18,189.65z"/>
				<polyline class="st15" points="592.78,190.21 596.48,193.73 601.31,187.08 				"/>
			</g>
			<g>
				<path class="st0" d="M637.08,349.21c0.05,5.24-4.17,9.53-9.41,9.58s-9.53-4.17-9.58-9.41s4.17-9.53,9.41-9.58
					C632.74,339.76,637.03,343.97,637.08,349.21z"/>
				<polyline class="st16" points="623.41,349.78 627.18,353.37 632.11,346.59 				"/>
			</g>
		</g>
		<g>
			<g class="st17">
				<path class="st18" d="M496.92,128.12v193.09c0,8.37-6.79,15.16-15.16,15.16H245.89c-8.37,0-15.16-6.79-15.16-15.16V128.12
					c0-8.39,6.79-15.16,15.16-15.16h235.87C490.13,112.96,496.92,119.73,496.92,128.12z"/>
				<path class="st18" d="M496.92,128.12v27h-266.2v-27c0-8.39,6.79-15.16,15.16-15.16h235.87
					C490.13,112.96,496.92,119.73,496.92,128.12z"/>
				<path class="st18" d="M269.3,197.41h-25.69c-1.28,0-2.32-1.04-2.32-2.32V169.4c0-1.28,1.04-2.32,2.32-2.32h25.69
					c1.28,0,2.32,1.04,2.32,2.32v25.69C271.62,196.37,270.58,197.41,269.3,197.41z"/>
				<path class="st18" d="M312.52,197.41h-25.69c-1.28,0-2.32-1.04-2.32-2.32V169.4c0-1.28,1.04-2.32,2.32-2.32h25.69
					c1.28,0,2.32,1.04,2.32,2.32v25.69C314.84,196.37,313.8,197.41,312.52,197.41z"/>
				<path class="st18" d="M355.74,197.41h-25.69c-1.28,0-2.32-1.04-2.32-2.32V169.4c0-1.28,1.04-2.32,2.32-2.32h25.69
					c1.28,0,2.32,1.04,2.32,2.32v25.69C358.06,196.37,357.02,197.41,355.74,197.41z"/>
				<path class="st18" d="M398.96,197.41h-25.69c-1.28,0-2.32-1.04-2.32-2.32V169.4c0-1.28,1.04-2.32,2.32-2.32h25.69
					c1.28,0,2.32,1.04,2.32,2.32v25.69C401.28,196.37,400.24,197.41,398.96,197.41z"/>
				<path class="st19" d="M442.18,197.41h-25.69c-1.28,0-2.32-1.04-2.32-2.32V169.4c0-1.28,1.04-2.32,2.32-2.32h25.69
					c1.28,0,2.32,1.04,2.32,2.32v25.69C444.5,196.37,443.46,197.41,442.18,197.41z"/>
				<path class="st18" d="M485.4,197.41h-25.69c-1.28,0-2.32-1.04-2.32-2.32V169.4c0-1.28,1.04-2.32,2.32-2.32h25.69
					c1.28,0,2.32,1.04,2.32,2.32v25.69C487.72,196.37,486.68,197.41,485.4,197.41z"/>
				<path class="st18" d="M269.3,238.11h-25.69c-1.28,0-2.32-1.04-2.32-2.32V210.1c0-1.28,1.04-2.32,2.32-2.32h25.69
					c1.28,0,2.32,1.04,2.32,2.32v25.69C271.62,237.07,270.58,238.11,269.3,238.11z"/>
				<path class="st18" d="M312.52,238.11h-25.69c-1.28,0-2.32-1.04-2.32-2.32V210.1c0-1.28,1.04-2.32,2.32-2.32h25.69
					c1.28,0,2.32,1.04,2.32,2.32v25.69C314.84,237.07,313.8,238.11,312.52,238.11z"/>
				<path class="st19" d="M355.74,238.11h-25.69c-1.28,0-2.32-1.04-2.32-2.32V210.1c0-1.28,1.04-2.32,2.32-2.32h25.69
					c1.28,0,2.32,1.04,2.32,2.32v25.69C358.06,237.07,357.02,238.11,355.74,238.11z"/>
				<path class="st18" d="M398.96,238.11h-25.69c-1.28,0-2.32-1.04-2.32-2.32V210.1c0-1.28,1.04-2.32,2.32-2.32h25.69
					c1.28,0,2.32,1.04,2.32,2.32v25.69C401.28,237.07,400.24,238.11,398.96,238.11z"/>
				<path class="st18" d="M442.18,238.11h-25.69c-1.28,0-2.32-1.04-2.32-2.32V210.1c0-1.28,1.04-2.32,2.32-2.32h25.69
					c1.28,0,2.32,1.04,2.32,2.32v25.69C444.5,237.07,443.46,238.11,442.18,238.11z"/>
				<path class="st18" d="M485.4,238.11h-25.69c-1.28,0-2.32-1.04-2.32-2.32V210.1c0-1.28,1.04-2.32,2.32-2.32h25.69
					c1.28,0,2.32,1.04,2.32,2.32v25.69C487.72,237.07,486.68,238.11,485.4,238.11z"/>
				<path class="st18" d="M269.3,278.81h-25.69c-1.28,0-2.32-1.04-2.32-2.32V250.8c0-1.28,1.04-2.32,2.32-2.32h25.69
					c1.28,0,2.32,1.04,2.32,2.32v25.69C271.62,277.77,270.58,278.81,269.3,278.81z"/>
				<path class="st18" d="M312.52,278.81h-25.69c-1.28,0-2.32-1.04-2.32-2.32V250.8c0-1.28,1.04-2.32,2.32-2.32h25.69
					c1.28,0,2.32,1.04,2.32,2.32v25.69C314.84,277.77,313.8,278.81,312.52,278.81z"/>
				<path class="st18" d="M355.74,278.81h-25.69c-1.28,0-2.32-1.04-2.32-2.32V250.8c0-1.28,1.04-2.32,2.32-2.32h25.69
					c1.28,0,2.32,1.04,2.32,2.32v25.69C358.06,277.77,357.02,278.81,355.74,278.81z"/>
				<path class="st18" d="M398.96,278.81h-25.69c-1.28,0-2.32-1.04-2.32-2.32V250.8c0-1.28,1.04-2.32,2.32-2.32h25.69
					c1.28,0,2.32,1.04,2.32,2.32v25.69C401.28,277.77,400.24,278.81,398.96,278.81z"/>
				<path class="st18" d="M442.18,278.81h-25.69c-1.28,0-2.32-1.04-2.32-2.32V250.8c0-1.28,1.04-2.32,2.32-2.32h25.69
					c1.28,0,2.32,1.04,2.32,2.32v25.69C444.5,277.77,443.46,278.81,442.18,278.81z"/>
				<path class="st18" d="M485.4,278.81h-25.69c-1.28,0-2.32-1.04-2.32-2.32V250.8c0-1.28,1.04-2.32,2.32-2.32h25.69
					c1.28,0,2.32,1.04,2.32,2.32v25.69C487.72,277.77,486.68,278.81,485.4,278.81z"/>
				<path class="st19" d="M269.3,319.52h-25.69c-1.28,0-2.32-1.04-2.32-2.32v-25.69c0-1.28,1.04-2.32,2.32-2.32h25.69
					c1.28,0,2.32,1.04,2.32,2.32v25.69C271.62,318.48,270.58,319.52,269.3,319.52z"/>
				<path class="st18" d="M312.52,319.52h-25.69c-1.28,0-2.32-1.04-2.32-2.32v-25.69c0-1.28,1.04-2.32,2.32-2.32h25.69
					c1.28,0,2.32,1.04,2.32,2.32v25.69C314.84,318.48,313.8,319.52,312.52,319.52z"/>
				<path class="st18" d="M355.74,319.52h-25.69c-1.28,0-2.32-1.04-2.32-2.32v-25.69c0-1.28,1.04-2.32,2.32-2.32h25.69
					c1.28,0,2.32,1.04,2.32,2.32v25.69C358.06,318.48,357.02,319.52,355.74,319.52z"/>
				<path class="st18" d="M398.96,319.52h-25.69c-1.28,0-2.32-1.04-2.32-2.32v-25.69c0-1.28,1.04-2.32,2.32-2.32h25.69
					c1.28,0,2.32,1.04,2.32,2.32v25.69C401.28,318.48,400.24,319.52,398.96,319.52z"/>
				<path class="st18" d="M442.18,319.52h-25.69c-1.28,0-2.32-1.04-2.32-2.32v-25.69c0-1.28,1.04-2.32,2.32-2.32h25.69
					c1.28,0,2.32,1.04,2.32,2.32v25.69C444.5,318.48,443.46,319.52,442.18,319.52z"/>
				<path class="st18" d="M485.4,319.52h-25.69c-1.28,0-2.32-1.04-2.32-2.32v-25.69c0-1.28,1.04-2.32,2.32-2.32h25.69
					c1.28,0,2.32,1.04,2.32,2.32v25.69C487.72,318.48,486.68,319.52,485.4,319.52z"/>
				<path class="st18" d="M252.27,136.47c0,3.05-2.47,5.52-5.52,5.52s-5.52-2.47-5.52-5.52s2.47-5.52,5.52-5.52
					S252.27,133.43,252.27,136.47z"/>
				<path class="st18" d="M299.25,136.47c0,3.05-2.47,5.52-5.52,5.52s-5.52-2.47-5.52-5.52s2.47-5.52,5.52-5.52
					C296.78,130.96,299.25,133.43,299.25,136.47z"/>
				<path class="st18" d="M346.23,136.47c0,3.05-2.47,5.52-5.52,5.52s-5.52-2.47-5.52-5.52s2.47-5.52,5.52-5.52
					C343.76,130.96,346.23,133.43,346.23,136.47z"/>
				<path class="st18" d="M393.21,136.47c0,3.05-2.47,5.52-5.52,5.52s-5.52-2.47-5.52-5.52s2.47-5.52,5.52-5.52
					C390.74,130.96,393.21,133.43,393.21,136.47z"/>
				<path class="st18" d="M440.18,136.47c0,3.05-2.47,5.52-5.52,5.52s-5.52-2.47-5.52-5.52s2.47-5.52,5.52-5.52
					C437.71,130.96,440.18,133.43,440.18,136.47z"/>
				<path class="st18" d="M487.16,136.47c0,3.05-2.47,5.52-5.52,5.52s-5.52-2.47-5.52-5.52s2.47-5.52,5.52-5.52
					C484.69,130.96,487.16,133.43,487.16,136.47z"/>
				<line class="st20" x1="246.75" y1="136.47" x2="246.75" y2="110.57"/>
				<line class="st20" x1="293.73" y1="136.47" x2="293.73" y2="110.57"/>
				<line class="st20" x1="340.71" y1="136.47" x2="340.71" y2="110.57"/>
				<line class="st20" x1="434.67" y1="136.47" x2="434.67" y2="110.57"/>
				<line class="st20" x1="481.65" y1="136.47" x2="481.65" y2="110.57"/>
				<path id="XMLID_458_" class="st18" d="M342.89,278.74"/>
				<path id="XMLID_440_" class="st18" d="M351.59,255.5c-0.89,0.32-1.79,0.57-2.69,0.79c0.64,2.21,0.99,4.51,1.02,6.79h4.88
					C354.67,260.16,353.47,257.5,351.59,255.5z M347.56,252.68c0.39,0.82,0.71,1.68,1.01,2.53c0.71-0.17,1.42-0.36,2.11-0.58
					C349.75,253.82,348.71,253.16,347.56,252.68z M346.06,252.14c-0.83-0.23-1.7-0.37-2.61-0.4v4.09c1.33-0.01,2.68-0.15,4.01-0.39
					C347.08,254.31,346.61,253.21,346.06,252.14z M347.8,256.52c-1.43,0.26-2.89,0.42-4.34,0.43v6.13h5.36
					C348.77,260.87,348.44,258.65,347.8,256.52z M342.89,251.73c-0.19,0-0.37,0-0.56,0.01h1.12
					C343.26,251.73,343.08,251.73,342.89,251.73z M339.73,252.14c-0.55,1.07-1.02,2.17-1.4,3.28c1.32,0.24,2.67,0.39,4.01,0.4v-4.09
					C341.43,251.77,340.56,251.92,339.73,252.14z M335.11,254.61c0.69,0.24,1.39,0.43,2.11,0.6c0.3-0.86,0.63-1.7,1.01-2.52
					C337.09,253.16,336.04,253.81,335.11,254.61z M337.99,256.51c-0.63,2.13-0.98,4.34-1.01,6.57h5.35v-6.13
					C340.88,256.94,339.42,256.77,337.99,256.51z M334.21,255.48c-1.89,2.01-3.09,4.68-3.23,7.6h4.88c0.04-2.3,0.39-4.59,1.02-6.82
					C335.97,256.05,335.07,255.8,334.21,255.48z M343.45,264.2v6.14c1.45,0.02,2.9,0.17,4.33,0.44c0.64-2.14,0.99-4.36,1.02-6.58
					L343.45,264.2L343.45,264.2z M349.93,264.2c-0.04,2.31-0.38,4.59-1.04,6.81c0.9,0.21,1.8,0.48,2.69,0.79
					c1.89-2,3.09-4.66,3.22-7.59h-4.87V264.2z M337.24,272.09c-0.71,0.17-1.43,0.36-2.13,0.6c0.93,0.81,1.99,1.46,3.15,1.96
					C337.88,273.8,337.54,272.96,337.24,272.09z M348.55,272.08c-0.29,0.87-0.63,1.71-1.02,2.56c1.17-0.49,2.23-1.15,3.15-1.98
					C349.97,272.43,349.26,272.24,348.55,272.08z M343.45,271.46v4.11c0.88-0.05,1.74-0.18,2.57-0.4c0.56-1.07,1.04-2.18,1.42-3.3
					C346.12,271.61,344.78,271.48,343.45,271.46z M338.35,271.87c0.39,1.11,0.87,2.21,1.43,3.28c0.81,0.23,1.67,0.36,2.56,0.4v-4.11
					C341,271.48,339.67,271.62,338.35,271.87z M335.86,264.2h-4.88c0.13,2.94,1.33,5.62,3.23,7.62c0.88-0.31,1.78-0.58,2.7-0.8
					C336.25,268.79,335.9,266.51,335.86,264.2z M336.98,264.2c0.04,2.23,0.39,4.44,1.02,6.58c1.43-0.26,2.88-0.42,4.33-0.44v-6.14
					L336.98,264.2L336.98,264.2z"/>
				<path id="XMLID_439_" class="st18" d="M342.33,275.56c0.19,0.01,0.37,0.01,0.56,0.01s0.37,0,0.56-0.01"/>
				<path id="XMLID_438_" class="st18" d="M342.89,248.55"/>
				<polyline class="st21" points="247.55,184.34 254.87,190.46 265.41,175.81 				"/>
				<polyline class="st21" points="421.25,184.34 428.57,190.46 439.11,175.81 				"/>
				<polyline class="st21" points="290.74,304.64 298.06,310.75 308.6,296.1 				"/>
			</g>
			<g>
				<g>
					<g>
						<g>
							<path class="st5" d="M491.71,122.91V316c0,8.37-6.79,15.16-15.16,15.16H240.68c-8.37,0-15.16-6.79-15.16-15.16V122.91
								c0-8.39,6.79-15.16,15.16-15.16h235.87C484.92,107.75,491.71,114.53,491.71,122.91z"/>
						</g>
						<path class="st14" d="M491.71,122.91v27h-266.2v-27c0-8.39,6.79-15.16,15.16-15.16h235.87
							C484.92,107.75,491.71,114.53,491.71,122.91z"/>
					</g>
					<g>
						<g>
							<path class="st8" d="M264.09,192.2H238.4c-1.28,0-2.32-1.04-2.32-2.32v-25.69c0-1.28,1.04-2.32,2.32-2.32h25.69
								c1.28,0,2.32,1.04,2.32,2.32v25.69C266.41,191.16,265.37,192.2,264.09,192.2z"/>
							<path class="st8" d="M307.31,192.2h-25.69c-1.28,0-2.32-1.04-2.32-2.32v-25.69c0-1.28,1.04-2.32,2.32-2.32h25.69
								c1.28,0,2.32,1.04,2.32,2.32v25.69C309.63,191.16,308.59,192.2,307.31,192.2z"/>
							<path class="st8" d="M350.53,192.2h-25.69c-1.28,0-2.32-1.04-2.32-2.32v-25.69c0-1.28,1.04-2.32,2.32-2.32h25.69
								c1.28,0,2.32,1.04,2.32,2.32v25.69C352.85,191.16,351.81,192.2,350.53,192.2z"/>
							<path class="st8" d="M393.75,192.2h-25.69c-1.28,0-2.32-1.04-2.32-2.32v-25.69c0-1.28,1.04-2.32,2.32-2.32h25.69
								c1.28,0,2.32,1.04,2.32,2.32v25.69C396.07,191.16,395.03,192.2,393.75,192.2z"/>
							<path class="st22" d="M436.97,192.2h-25.69c-1.28,0-2.32-1.04-2.32-2.32v-25.69c0-1.28,1.04-2.32,2.32-2.32h25.69
								c1.28,0,2.32,1.04,2.32,2.32v25.69C439.3,191.16,438.25,192.2,436.97,192.2z"/>
							<path class="st8" d="M480.19,192.2H454.5c-1.28,0-2.32-1.04-2.32-2.32v-25.69c0-1.28,1.04-2.32,2.32-2.32h25.69
								c1.28,0,2.32,1.04,2.32,2.32v25.69C482.52,191.16,481.48,192.2,480.19,192.2z"/>
						</g>
						<g>
							<path class="st8" d="M264.09,232.9H238.4c-1.28,0-2.32-1.04-2.32-2.32v-25.69c0-1.28,1.04-2.32,2.32-2.32h25.69
								c1.28,0,2.32,1.04,2.32,2.32v25.69C266.41,231.86,265.37,232.9,264.09,232.9z"/>
							<path class="st8" d="M307.31,232.9h-25.69c-1.28,0-2.32-1.04-2.32-2.32v-25.69c0-1.28,1.04-2.32,2.32-2.32h25.69
								c1.28,0,2.32,1.04,2.32,2.32v25.69C309.63,231.86,308.59,232.9,307.31,232.9z"/>
							<path class="st22" d="M350.53,232.9h-25.69c-1.28,0-2.32-1.04-2.32-2.32v-25.69c0-1.28,1.04-2.32,2.32-2.32h25.69
								c1.28,0,2.32,1.04,2.32,2.32v25.69C352.85,231.86,351.81,232.9,350.53,232.9z"/>
							<path class="st8" d="M393.75,232.9h-25.69c-1.28,0-2.32-1.04-2.32-2.32v-25.69c0-1.28,1.04-2.32,2.32-2.32h25.69
								c1.28,0,2.32,1.04,2.32,2.32v25.69C396.07,231.86,395.03,232.9,393.75,232.9z"/>
							<path class="st8" d="M436.97,232.9h-25.69c-1.28,0-2.32-1.04-2.32-2.32v-25.69c0-1.28,1.04-2.32,2.32-2.32h25.69
								c1.28,0,2.32,1.04,2.32,2.32v25.69C439.3,231.86,438.25,232.9,436.97,232.9z"/>
							<path class="st8" d="M480.19,232.9H454.5c-1.28,0-2.32-1.04-2.32-2.32v-25.69c0-1.28,1.04-2.32,2.32-2.32h25.69
								c1.28,0,2.32,1.04,2.32,2.32v25.69C482.52,231.86,481.48,232.9,480.19,232.9z"/>
						</g>
						<g>
							<path class="st8" d="M264.09,273.61H238.4c-1.28,0-2.32-1.04-2.32-2.32V245.6c0-1.28,1.04-2.32,2.32-2.32h25.69
								c1.28,0,2.32,1.04,2.32,2.32v25.69C266.41,272.57,265.37,273.61,264.09,273.61z"/>
							<path class="st8" d="M307.31,273.61h-25.69c-1.28,0-2.32-1.04-2.32-2.32V245.6c0-1.28,1.04-2.32,2.32-2.32h25.69
								c1.28,0,2.32,1.04,2.32,2.32v25.69C309.63,272.57,308.59,273.61,307.31,273.61z"/>
							<path class="st8" d="M350.53,273.61h-25.69c-1.28,0-2.32-1.04-2.32-2.32V245.6c0-1.28,1.04-2.32,2.32-2.32h25.69
								c1.28,0,2.32,1.04,2.32,2.32v25.69C352.85,272.57,351.81,273.61,350.53,273.61z"/>
							<path class="st8" d="M393.75,273.61h-25.69c-1.28,0-2.32-1.04-2.32-2.32V245.6c0-1.28,1.04-2.32,2.32-2.32h25.69
								c1.28,0,2.32,1.04,2.32,2.32v25.69C396.07,272.57,395.03,273.61,393.75,273.61z"/>
							<path class="st8" d="M436.97,273.61h-25.69c-1.28,0-2.32-1.04-2.32-2.32V245.6c0-1.28,1.04-2.32,2.32-2.32h25.69
								c1.28,0,2.32,1.04,2.32,2.32v25.69C439.3,272.57,438.25,273.61,436.97,273.61z"/>
							<path class="st8" d="M480.19,273.61H454.5c-1.28,0-2.32-1.04-2.32-2.32V245.6c0-1.28,1.04-2.32,2.32-2.32h25.69
								c1.28,0,2.32,1.04,2.32,2.32v25.69C482.52,272.57,481.48,273.61,480.19,273.61z"/>
						</g>
						<g>
							<path class="st22" d="M264.09,314.31H238.4c-1.28,0-2.32-1.04-2.32-2.32V286.3c0-1.28,1.04-2.32,2.32-2.32h25.69
								c1.28,0,2.32,1.04,2.32,2.32v25.69C266.41,313.27,265.37,314.31,264.09,314.31z"/>
							<path class="st8" d="M307.31,314.31h-25.69c-1.28,0-2.32-1.04-2.32-2.32V286.3c0-1.28,1.04-2.32,2.32-2.32h25.69
								c1.28,0,2.32,1.04,2.32,2.32v25.69C309.63,313.27,308.59,314.31,307.31,314.31z"/>
							<path class="st8" d="M350.53,314.31h-25.69c-1.28,0-2.32-1.04-2.32-2.32V286.3c0-1.28,1.04-2.32,2.32-2.32h25.69
								c1.28,0,2.32,1.04,2.32,2.32v25.69C352.85,313.27,351.81,314.31,350.53,314.31z"/>
							<path class="st8" d="M393.75,314.31h-25.69c-1.28,0-2.32-1.04-2.32-2.32V286.3c0-1.28,1.04-2.32,2.32-2.32h25.69
								c1.28,0,2.32,1.04,2.32,2.32v25.69C396.07,313.27,395.03,314.31,393.75,314.31z"/>
							<path class="st8" d="M436.97,314.31h-25.69c-1.28,0-2.32-1.04-2.32-2.32V286.3c0-1.28,1.04-2.32,2.32-2.32h25.69
								c1.28,0,2.32,1.04,2.32,2.32v25.69C439.3,313.27,438.25,314.31,436.97,314.31z"/>
							<path class="st8" d="M480.19,314.31H454.5c-1.28,0-2.32-1.04-2.32-2.32V286.3c0-1.28,1.04-2.32,2.32-2.32h25.69
								c1.28,0,2.32,1.04,2.32,2.32v25.69C482.52,313.27,481.48,314.31,480.19,314.31z"/>
						</g>
					</g>
					<g>
						<path class="st23" d="M247.06,131.27c0,3.05-2.47,5.52-5.52,5.52s-5.52-2.47-5.52-5.52s2.47-5.52,5.52-5.52
							S247.06,128.22,247.06,131.27z"/>
						<circle class="st23" cx="288.52" cy="131.27" r="5.52"/>
						<circle class="st23" cx="335.5" cy="131.27" r="5.52"/>
						<path class="st23" d="M388,131.27c0,3.05-2.47,5.52-5.52,5.52s-5.52-2.47-5.52-5.52s2.47-5.52,5.52-5.52
							C385.53,125.75,388,128.22,388,131.27z"/>
						<path class="st23" d="M434.98,131.27c0,3.05-2.47,5.52-5.52,5.52s-5.52-2.47-5.52-5.52s2.47-5.52,5.52-5.52
							C432.51,125.75,434.98,128.22,434.98,131.27z"/>
						<path class="st23" d="M481.96,131.27c0,3.05-2.47,5.52-5.52,5.52s-5.52-2.47-5.52-5.52s2.47-5.52,5.52-5.52
							C479.49,125.75,481.96,128.22,481.96,131.27z"/>
					</g>
					<g>
						<line class="st24" x1="241.55" y1="131.27" x2="241.55" y2="105.37"/>
					</g>
					<g>
						<line class="st24" x1="288.52" y1="131.27" x2="288.52" y2="105.37"/>
					</g>
					<g>
						<line class="st24" x1="335.5" y1="131.27" x2="335.5" y2="105.37"/>
					</g>
					<g>
						<line class="st24" x1="429.46" y1="131.27" x2="429.46" y2="105.37"/>
					</g>
					<g>
						<line class="st24" x1="476.44" y1="131.27" x2="476.44" y2="105.37"/>
					</g>
					<g id="XMLID_367_">
						<path id="XMLID_391_" class="st5" d="M337.68,273.53"/>
						<g id="XMLID_368_">
							<path id="XMLID_373_" class="st5" d="M346.38,250.29c-0.89,0.32-1.79,0.57-2.69,0.79c0.64,2.21,0.99,4.51,1.02,6.79h4.88
								C349.47,254.96,348.26,252.29,346.38,250.29z M342.35,247.47c0.39,0.82,0.71,1.68,1.01,2.53c0.71-0.17,1.42-0.36,2.11-0.58
								C344.54,248.61,343.5,247.95,342.35,247.47z M340.85,246.94c-0.83-0.23-1.7-0.37-2.61-0.4v4.09
								c1.33-0.01,2.68-0.15,4.01-0.39C341.87,249.1,341.4,248.01,340.85,246.94z M342.59,251.32c-1.43,0.26-2.89,0.42-4.34,0.43
								v6.13h5.36C343.56,255.66,343.23,253.45,342.59,251.32z M337.69,246.52c-0.19,0-0.37,0-0.56,0.01h1.12
								C338.05,246.52,337.88,246.52,337.69,246.52z M334.52,246.94c-0.55,1.07-1.02,2.17-1.4,3.28c1.32,0.24,2.67,0.39,4.01,0.4
								v-4.09C336.22,246.57,335.35,246.71,334.52,246.94z M329.9,249.4c0.69,0.24,1.39,0.43,2.11,0.6c0.3-0.86,0.63-1.7,1.01-2.52
								C331.88,247.95,330.83,248.6,329.9,249.4z M332.78,251.3c-0.63,2.13-0.98,4.34-1.01,6.57h5.35v-6.13
								C335.67,251.73,334.21,251.57,332.78,251.3z M329,250.27c-1.89,2.01-3.09,4.68-3.23,7.6h4.88c0.04-2.3,0.39-4.59,1.02-6.82
								C330.76,250.84,329.87,250.59,329,250.27z M338.24,258.99v6.14c1.45,0.02,2.9,0.17,4.33,0.44c0.64-2.14,0.99-4.36,1.02-6.58
								L338.24,258.99L338.24,258.99z M344.72,258.99c-0.04,2.31-0.38,4.59-1.04,6.81c0.9,0.21,1.8,0.48,2.69,0.79
								c1.89-2,3.09-4.66,3.22-7.59h-4.87V258.99z M332.03,266.88c-0.71,0.17-1.43,0.36-2.13,0.6c0.93,0.81,1.99,1.46,3.15,1.96
								C332.68,268.59,332.33,267.75,332.03,266.88z M343.34,266.87c-0.29,0.87-0.63,1.71-1.02,2.56c1.17-0.49,2.23-1.15,3.15-1.98
								C344.77,267.23,344.05,267.04,343.34,266.87z M338.24,266.25v4.11c0.88-0.05,1.74-0.18,2.57-0.4
								c0.56-1.07,1.04-2.18,1.42-3.3C340.91,266.4,339.58,266.27,338.24,266.25z M333.14,266.67c0.39,1.11,0.87,2.21,1.43,3.28
								c0.81,0.23,1.67,0.36,2.56,0.4v-4.11C335.79,266.27,334.46,266.42,333.14,266.67z M330.65,258.99h-4.88
								c0.13,2.94,1.33,5.62,3.23,7.62c0.88-0.31,1.78-0.58,2.7-0.8C331.04,263.58,330.69,261.3,330.65,258.99z M331.77,258.99
								c0.04,2.23,0.39,4.44,1.02,6.58c1.43-0.26,2.88-0.42,4.33-0.44v-6.14L331.77,258.99L331.77,258.99z"/>
							<g id="XMLID_371_">
								<path id="XMLID_372_" class="st5" d="M337.12,270.35c0.19,0.01,0.37,0.01,0.56,0.01s0.37,0,0.56-0.01"/>
							</g>
							<g id="XMLID_369_">
								<path id="XMLID_370_" class="st5" d="M337.68,243.35"/>
							</g>
						</g>
					</g>
					<polyline class="st25" points="242.35,179.13 249.66,185.25 260.2,170.6 					"/>
					<polyline class="st25" points="416.04,179.13 423.36,185.25 433.9,170.6 					"/>
					<polyline class="st25" points="285.54,299.43 292.85,305.54 303.39,290.9 					"/>
				</g>
			</g>
		</g>
		<g>
			<g class="st17">
				
					<rect x="424.17" y="198.97" transform="matrix(0.8506 -0.5259 0.5259 0.8506 -43.5891 259.0002)" class="st18" width="19.49" height="14.44"/>
				<path class="st18" d="M421.81,205.19L421.81,205.19c3.86-5.57,9.87-9.28,16.58-10.25l0,0L421.81,205.19z"/>
				
					<rect x="560.61" y="196.45" transform="matrix(0.5259 -0.8506 0.8506 0.5259 93.8395 580.7323)" class="st18" width="14.44" height="19.49"/>
				<path class="st18" d="M579.88,205.19L579.88,205.19c-3.86-5.57-9.87-9.28-16.58-10.25l0,0L579.88,205.19z"/>
				<rect x="485.59" y="184.1" class="st18" width="30.5" height="9.97"/>
				<path class="st18" d="M521.6,163.88v20.22h-41.51v-20.22C493.45,158.77,508.24,158.77,521.6,163.88z"/>
				<line class="st26" x1="482.44" y1="184.1" x2="482.44" y2="163.89"/>
				<line class="st26" x1="485.75" y1="184.1" x2="485.75" y2="163.89"/>
				<line class="st26" x1="489.06" y1="184.1" x2="489.06" y2="163.89"/>
				<line class="st26" x1="492.38" y1="184.1" x2="492.38" y2="163.89"/>
				<line class="st26" x1="495.69" y1="184.1" x2="495.69" y2="163.89"/>
				<line class="st26" x1="499.01" y1="184.1" x2="499.01" y2="163.89"/>
				<line class="st26" x1="502.32" y1="184.1" x2="502.32" y2="163.89"/>
				<line class="st26" x1="505.63" y1="184.1" x2="505.63" y2="163.89"/>
				<line class="st26" x1="508.95" y1="184.1" x2="508.95" y2="163.89"/>
				<line class="st26" x1="512.26" y1="184.1" x2="512.26" y2="163.89"/>
				<line class="st26" x1="515.58" y1="184.1" x2="515.58" y2="163.89"/>
				<line class="st26" x1="518.89" y1="184.1" x2="518.89" y2="163.89"/>
				<path class="st18" d="M521.6,163.88h-41.51C493.45,158.77,508.24,158.77,521.6,163.88z"/>
				
					<ellipse transform="matrix(0.7071 -0.7071 0.7071 0.7071 -72.9724 445.1337)" class="st18" cx="500.84" cy="310.65" rx="120.19" ry="120.19"/>
				<ellipse class="st27" cx="500.84" cy="310.65" rx="108.28" ry="108.28"/>
				
					<ellipse transform="matrix(0.7071 -0.7071 0.7071 0.7071 -72.9724 445.1337)" class="st18" cx="500.84" cy="310.65" rx="104.49" ry="104.49"/>
				<line class="st20" x1="598.83" y1="310.65" x2="588.55" y2="310.65"/>
				<line class="st20" x1="500.84" y1="408.64" x2="500.84" y2="398.35"/>
				<line class="st20" x1="402.85" y1="310.65" x2="413.14" y2="310.65"/>
				<line class="st20" x1="500.84" y1="212.66" x2="500.84" y2="222.94"/>
				<line class="st28" x1="585.7" y1="359.65" x2="576.8" y2="354.5"/>
				<line class="st28" x1="451.84" y1="395.51" x2="456.99" y2="386.6"/>
				<line class="st28" x1="415.98" y1="261.65" x2="424.89" y2="266.79"/>
				<line class="st28" x1="549.84" y1="225.79" x2="544.7" y2="234.69"/>
				<line class="st28" x1="549.82" y1="395.52" x2="544.68" y2="386.61"/>
				<line class="st28" x1="415.97" y1="359.63" x2="424.88" y2="354.49"/>
				<line class="st28" x1="451.86" y1="225.77" x2="457" y2="234.68"/>
				<line class="st28" x1="585.71" y1="261.67" x2="576.81" y2="266.81"/>
				<path class="st18" d="M526.34,348.88c-1,0-1.99-0.46-2.63-1.34l-26.52-36.39l26.1-70.7c0.62-1.68,2.49-2.54,4.17-1.92
					s2.54,2.49,1.92,4.17l-24.89,67.44l24.47,33.57c1.06,1.45,0.74,3.48-0.71,4.54C527.68,348.67,527.01,348.88,526.34,348.88z"/>
				<path class="st18" d="M508.96,310.65c0,4.49-3.64,8.12-8.12,8.12c-4.49,0-8.12-3.64-8.12-8.12c0-4.48,3.64-8.12,8.12-8.12
					C505.33,302.53,508.96,306.16,508.96,310.65z"/>
			</g>
			<g>
				<g>
					<g>
						<g>
							
								<rect x="418.96" y="193.77" transform="matrix(0.8506 -0.5259 0.5259 0.8506 -41.6312 255.4824)" class="st29" width="19.49" height="14.44"/>
							<path class="st29" d="M416.6,199.98L416.6,199.98c3.86-5.57,9.87-9.28,16.58-10.25l0,0L416.6,199.98z"/>
						</g>
						<g>
							
								<rect x="555.39" y="191.24" transform="matrix(0.5259 -0.8506 0.8506 0.5259 95.7994 573.826)" class="st29" width="14.44" height="19.49"/>
							<path class="st29" d="M574.67,199.98L574.67,199.98c-3.86-5.57-9.87-9.28-16.58-10.25l0,0L574.67,199.98z"/>
						</g>
					</g>
					<g>
						<rect x="480.39" y="178.89" class="st29" width="30.5" height="9.97"/>
						<path class="st14" d="M516.39,158.67v20.22h-41.51v-20.22C488.24,153.56,503.03,153.56,516.39,158.67z"/>
						<g>
							<g>
								<line class="st30" x1="477.23" y1="178.89" x2="477.23" y2="158.68"/>
							</g>
							<g>
								<line class="st30" x1="480.54" y1="178.89" x2="480.54" y2="158.68"/>
							</g>
							<g>
								<line class="st30" x1="483.86" y1="178.89" x2="483.86" y2="158.68"/>
							</g>
							<g>
								<line class="st30" x1="487.17" y1="178.89" x2="487.17" y2="158.68"/>
							</g>
							<g>
								<line class="st30" x1="490.48" y1="178.89" x2="490.48" y2="158.68"/>
							</g>
							<g>
								<line class="st30" x1="493.8" y1="178.89" x2="493.8" y2="158.68"/>
							</g>
							<g>
								<line class="st30" x1="497.11" y1="178.89" x2="497.11" y2="158.68"/>
							</g>
							<g>
								<line class="st30" x1="500.43" y1="178.89" x2="500.43" y2="158.68"/>
							</g>
							<g>
								<line class="st30" x1="503.74" y1="178.89" x2="503.74" y2="158.68"/>
							</g>
							<g>
								<line class="st30" x1="507.05" y1="178.89" x2="507.05" y2="158.68"/>
							</g>
							<g>
								<line class="st30" x1="510.37" y1="178.89" x2="510.37" y2="158.68"/>
							</g>
							<g>
								<line class="st30" x1="513.68" y1="178.89" x2="513.68" y2="158.68"/>
							</g>
						</g>
						<path class="st29" d="M516.39,158.67h-41.51C488.24,153.56,503.03,153.56,516.39,158.67z"/>
					</g>
					<ellipse class="st14" cx="495.63" cy="305.44" rx="120.19" ry="120.19"/>
					
						<ellipse transform="matrix(0.7071 -0.7071 0.7071 0.7071 -70.8093 439.9266)" class="st11" cx="495.63" cy="305.44" rx="108.28" ry="108.28"/>
					<g>
						<circle class="st5" cx="495.64" cy="305.44" r="104.49"/>
					</g>
					<g>
						<g>
							<g>
								<line class="st24" x1="593.63" y1="305.44" x2="583.34" y2="305.44"/>
							</g>
							<g>
								<line class="st24" x1="495.64" y1="403.43" x2="495.64" y2="393.14"/>
							</g>
							<g>
								<line class="st24" x1="397.64" y1="305.44" x2="407.93" y2="305.44"/>
							</g>
							<g>
								<line class="st24" x1="495.64" y1="207.45" x2="495.64" y2="217.73"/>
							</g>
						</g>
					</g>
					<g class="st31">
						<g>
							<g>
								<line class="st32" x1="580.5" y1="354.44" x2="571.59" y2="349.29"/>
							</g>
							<g>
								<line class="st32" x1="446.64" y1="390.3" x2="451.78" y2="381.39"/>
							</g>
							<g>
								<line class="st32" x1="410.77" y1="256.44" x2="419.68" y2="261.58"/>
							</g>
							<g>
								<line class="st32" x1="544.63" y1="220.58" x2="539.49" y2="229.49"/>
							</g>
							<g>
								<line class="st32" x1="544.62" y1="390.31" x2="539.47" y2="381.4"/>
							</g>
							<g>
								<line class="st32" x1="410.76" y1="354.42" x2="419.67" y2="349.28"/>
							</g>
							<g>
								<line class="st32" x1="446.66" y1="220.57" x2="451.8" y2="229.48"/>
							</g>
							<g>
								<line class="st32" x1="580.51" y1="256.46" x2="571.6" y2="261.6"/>
							</g>
						</g>
					</g>
					<g>
						<path class="st14" d="M521.13,343.67c-1,0-1.99-0.46-2.63-1.34l-26.52-36.39l26.1-70.7c0.62-1.68,2.49-2.54,4.17-1.92
							s2.54,2.49,1.92,4.17l-24.89,67.44l24.47,33.57c1.06,1.45,0.74,3.48-0.71,4.54C522.47,343.47,521.8,343.67,521.13,343.67z"/>
					</g>
					<g>
						<circle class="st33" cx="495.64" cy="305.44" r="8.12"/>
					</g>
				</g>
			</g>
		</g>
		<g>
			<polyline class="st34" points="592.64,428.07 595.57,433.14 599.3,432.42 596.74,426.48 			"/>
			<path class="st35" d="M599.3,432.05c0,0-0.88,0.71-2.64,0.7c0,0-0.95-0.27-1.25-0.2c-0.3,0.07-0.81,0.91-1.02,1.15
				c-0.22,0.24-1.3,1-1.98,1.32c-0.52,0.24-2.5,0.93-2.86,1.7c-0.15,0.32,0.1,0.69,0.45,0.69c0.6-0.01,2.24-0.04,3.39-0.06
				c0.72-0.01,1.43-0.11,2.12-0.31c2.16-0.65,4.84-1.56,4.98-1.71C600.66,435.16,600.42,432.87,599.3,432.05z"/>
			<path class="st36" d="M566.31,378.81c-14.34-9.21-12.57,4.55-12.57,4.55l40.45,47.87c0,0,2.57-0.06,3.93-2.5
				C598.12,428.72,582.51,389.3,566.31,378.81z"/>
			<path class="st36" d="M571.04,337.75c0,0,1.68,3.52,1.25,8.03c-0.38,4.06-1.31,7.5-1.65,11.21c-0.34,3.7-4.64,25.76-4.64,25.76
				s-11.62,3.53-12.46,0.07c-1.7-6.99-4.1-44.83-4.1-44.83S560.63,340.34,571.04,337.75z"/>
			<path class="st35" d="M575.44,336.67c0,0,3.45,9.28-8.07,19.94c-2.99,2.77-5.72,3.82-9.39,7.23
				c-2.73,2.53-19.47,19.11-19.47,19.11s-10.35-8.22-9.05-11.53c2.63-6.7,21.2-40.24,21.2-40.24S565.43,332.81,575.44,336.67z"/>
			<polyline class="st34" points="515.53,428.12 514.11,433.86 517.91,434.04 520.98,428.61 			"/>
			<path class="st35" d="M541.58,375.32c-1-19.27-12.12-3.91-12.12-3.91l-14.66,58.76c0,0,1.73,1.8,4.59,1.84
				C519.39,432.01,542.58,394.59,541.58,375.32z"/>
			<path class="st34" d="M579.33,272.99c-4.77,2.34-12.77,0.32-12.77,0.32l2.68-8.54l1.15-3.65c0,0,0.82-0.7,2.03-1.67
				c3.72-3,11.14-8.48,9.21-3.13C579.07,263.38,579.33,272.99,579.33,272.99z"/>
			<path class="st37" d="M574.91,260.57c0,0-2.06,2.83-5.66,4.19l1.15-3.65c0,0,0.82-0.7,2.03-1.67l0.4-0.07L574.91,260.57z"/>
			<path class="st34" d="M564.68,244.64c0,0-3.1,15.52-0.65,18.12c2.46,2.6,13.93-2.18,13.93-2.18s8.97-8.39,8.34-15.96
				c-0.54-6.39-13.96-11.74-19.73-5.13C565.5,240.7,565.13,242.54,564.68,244.64z"/>
			<path class="st38" d="M563.46,234.21c0,0-2.53,7.98,3.45,10.87c3.97,1.91,8.5,2.34,8.5,4.3c-0.01,1.96,0.84,0.54,1.71,0.18
				c1.86-0.77,2.78,1.8,1.63,4.21c-0.87,1.84-0.77,4.72,2.02,5.42c0,0,3.14-4.11,4.72-6.93c1.25-2.23,4.48-10.07-0.75-11.78
				c-0.34-1.75-1.96-3.5-3.8-4.34c-5.01-2.3-9.71-1.61-13.31-1.46C565.98,234.75,564.19,231.3,563.46,234.21z"/>
			<path class="st34" d="M553.55,286.74c-1.87-0.75-4.58-1.99-7.43-3.34c-2.23-1.06-4.54-2.2-6.59-3.22
				c-3.81-1.88-6.77-3.39-6.77-3.39s2.47-7.6,4.06-7.93c0.94-0.19,8.04,1.11,13.63,2.19c1.19,0.23,2.32,0.45,3.3,0.66
				c2.16,0.41,3.61,0.71,3.61,0.71L553.55,286.74z"/>
			<path class="st34" d="M532.77,276.78c-3.57-1.8-5.05-4.13-8.92-11.52c-1.39-2.66-4.49-8.86-5.7-11.43l1.32-3.57
				c0.73,0.45,10.88,10.26,12.21,11.81c2.12,2.47,5.16,6.79,5.16,6.79C538.35,271.52,536.34,278.59,532.77,276.78z"/>
			<path class="st39" d="M566.64,274.12c-5.83-1.94-18.96-4.29-18.96-4.29s-3.59,8.07-3.73,13.96c4.24,2.67,14.87,5.92,14.87,5.92"
				/>
			<path class="st40" d="M582.14,309.72c-0.16,0.34-0.33,0.69-0.49,1.03c-0.85,1.68-1.67,3.37-2.4,5.08
				c-5.88,13.6-3.81,20.86-3.81,20.86c-9.66,1.26-25.82-3.58-25.82-3.58s0.04-1.38,0.01-2.46c-0.1-4.79-0.29-18.9,0.99-30.69
				c0.12-1,0.23-1.98,0.38-2.93c0.64-4.76,1.58-8.93,2.92-11.64c5.49-11.12,12.64-12.08,12.64-12.08
				c6.65,0.79,12.77-0.31,12.77-0.31C590.86,279.6,587.84,297.74,582.14,309.72z"/>
			<path class="st34" d="M532.3,294.97c0,0-0.49-7.98,0.87-8.86c0.81-0.53,7.89-1.92,13.48-2.95c1.2-0.23,2.33-0.43,3.32-0.6
				c2.15-0.41,3.61-0.66,3.61-0.66l1.7,14.73C548.77,296.59,532.3,294.97,532.3,294.97z"/>
			<path class="st34" d="M533.17,286.1c0,0-3.73-3.21-6.61-4.74c-1.8-0.95-8.69-3.64-13.51-5.8c-2.9-1.3-4.97-2.65-4.97-2.65
				l-1.49,2.31c0,0,6.9,6.81,13.19,12.28s8.53,7.09,12.51,7.47C536.28,295.34,535.56,288.03,533.17,286.1z"/>
			<path class="st39" d="M571.69,296.63c-7.26,4.14-18.56,3.52-21.06,3.32c0.12-1,0.23-1.98,0.38-2.93L571.69,296.63z"/>
			<path class="st40" d="M573.56,295.95c-9.03,3.72-23.39,1.74-23.39,1.74c-2.01-7.02-1.56-15.12-1.56-15.12
				c3.75-1.25,15.08-3.07,15.08-3.07s11.51-1.45,13.2,6.35C578.63,293.89,573.56,295.95,573.56,295.95z"/>
			<path class="st34" d="M507.38,275.99c0,0-0.97-1.01-2.12-0.99c-1.13,0.02-2.51-0.93-2.62-1.49s1.57-3.26,1.87-3.44
				s1.81,0.97,2.31,1.14c0.5,0.18,0.41,1.15,2.03,2.17"/>
			<path class="st34" d="M507.53,272.37c0,0,0.06-0.72-0.49-1.84c-0.14-0.29-0.5-1.35-0.68-1.35s-0.42,0.23-0.49,0.5
				c-0.07,0.27,0.03,1.28,0.03,1.28"/>
			<path class="st39" d="M566.56,273.31l1.5-1.96c0,0,5.94,1.33,11.27,0.13v1.51l-4.74,0.99
				C574.6,273.97,570.74,274.84,566.56,273.31z"/>
			<path class="st41" d="M568.06,271.35l0.38,4.5c0,0,7.55-0.29,11.76-2.32l-0.85-2.58C579.34,270.94,575.22,272.06,568.06,271.35z"
				/>
			<path class="st35" d="M518.21,433.51c0,0-1.61,0.58-3.16,0.32c0,0-0.38-0.83-1.01-0.84s-1.4,0.86-1.82,1.06
				c-0.42,0.2-8.49,2.66-5.78,3.21c0.1,0.12,9.57,0.15,11.65,0.15c0.25,0,0.46-0.17,0.51-0.42
				C518.75,436.27,519.14,434.7,518.21,433.51z"/>
			<path class="st42" d="M564.64,278.82c0,0,3.19-1.44,6.79,0.23c4.12,1.9,6.87,5.5,5.46,11.31"/>
			<path class="st42" d="M575.77,275.37c0,0,0.6,3.23-1.93,5.14"/>
			<path class="st34" d="M513.29,248.22c0,0-0.09-3.66,0.77-4.64c0.87-0.98,2.52-1.09,2.74,0.22c0.22,1.3-3.12,3.36-3.12,3.36
				L513.29,248.22z"/>
		</g>
		<g>
			<path class="st34" d="M261.93,378.1c-1.34,10.02-6.78,48.72-6.78,48.72h-4.1c0,0-3.48-31.82-2.31-39.4
				c1.18-7.6,1.98-9.97,1.63-13.32c-0.04-0.38-1.79-8.05-3.23-14.37c-0.21-0.9-0.41-1.76-0.59-2.57c-0.75-3.27-1.32-5.71-1.32-5.71
				h16.73C261.95,351.44,262.28,375.44,261.93,378.1z"/>
			<path class="st37" d="M260.72,356.56c-4.74,2.04-13.19,3.11-13.58,3.16c-0.21-0.9-0.41-1.76-0.59-2.57l0.02-0.18l4.06-1.7
				C250.62,355.27,265.57,354.46,260.72,356.56z"/>
			<path class="st34" d="M255.15,426.82c0,0-0.12,1.01,0.31,1.76c0.43,0.76,1.71,4.14,4.37,6.31l0.33,0.89l-2.4,0.2
				c0,0-3.45-2.07-3.68-2.47c-0.23-0.39-1.12-2.12-1.38-2.66c-0.26-0.53-1.38-1.52-1.38-1.98c0-0.46-0.46-2.06-0.46-2.06
				s1.38-1.13,1.61-1.2s1.25-0.16,1.25-0.16L255.15,426.82z"/>
			<path class="st43" d="M250.95,425.89c0,0-1.75,2.44-1.51,4.89c0.15,1.52,0.81,4.46,0.8,6.64h0.56l0.92-4.93
				c0,0,4.07,4.48,4.99,4.7c0.92,0.22,4.64,0.22,4.83,0.22c0.2,0,3.09-0.65-1.71-2.53c0,0,0.03,0.95-1.87-0.03
				c-1.91-0.99-3.68-2.96-4.9-4.57C252.42,429.44,251.25,427.62,250.95,425.89z"/>
			<g>
				<path class="st34" d="M248.11,350.17c0,0,0,1.65-0.15,4.34c-0.05,0.77-0.09,1.63-0.17,2.55c-0.44,5.61-1.46,13.84-3.86,21.65
					c-2.97,9.67-15.95,47.34-15.95,47.34l-4.06-0.57c0,0,2.98-31.27,5.19-38.63s5.73-10.23,5.84-13.59
					c0.06-1.91-0.8-8.73-1.56-14.23c-0.25-1.85-0.48-3.55-0.67-4.87c-0.24-1.65-0.39-2.71-0.39-2.71L248.11,350.17z"/>
				<path class="st34" d="M227.99,426.04c0,0-0.26,0.98,0.06,1.79c0.32,0.81,1.12,4.34,3.46,6.85l0.2,0.92l-2.4-0.13
					c0,0-3.13-2.53-3.31-2.95c-0.17-0.42-0.82-2.26-1-2.82c-0.19-0.56-1.16-1.69-1.1-2.15s-0.17-2.1-0.17-2.1s1.52-0.93,1.76-0.96
					c0.24-0.03,1.26,0.01,1.26,0.01L227.99,426.04z"/>
				<path class="st43" d="M223.96,424.54c0,0-2.07,2.17-2.17,4.64c-0.06,1.52,0.19,4.53-0.12,6.68l0.56,0.08l1.59-4.75
					c0,0,3.41,4.99,4.29,5.34c0.88,0.35,4.56,0.86,4.76,0.89c0.2,0.03,3.15-0.22-1.35-2.74c0,0-0.1,0.95-1.85-0.29
					c-1.75-1.24-3.24-3.44-4.22-5.2C224.92,428.26,224.01,426.3,223.96,424.54z"/>
			</g>
			<path class="st37" d="M248.78,356.38c-0.31,0.25-0.64,0.47-0.99,0.67c-4.41,2.58-12.07,2.16-14.4,1.97
				c-0.25-1.85-0.48-3.55-0.67-4.87c4.86-0.25,12.17-0.44,15.23,0.35C249.4,354.89,249.9,355.47,248.78,356.38z"/>
			<path class="st34" d="M280.82,263.61c0,0,0.13,5.14-1.5,6.37c-1.24,0.93-12.12,0.6-17.22,0.39c-1.6-0.07-2.63-0.12-2.63-0.12
				l0.61-5.04l0.57-4.69L280.82,263.61z"/>
			<path class="st34" d="M278.55,264.17c0,0,3.72-2.01,7.03-2.56s18.09-4.34,18.09-4.34l1.15,2.9c0,0-13.7,8.66-27.1,10.19
				L278.55,264.17z"/>
			<path class="st34" d="M303.67,257.26c0,0,0.81-0.67,1.15-1.39c0.34-0.72,0.95-1.72,1.96-2.07c1-0.35,1.78-0.86,2.06-0.74
				c0.28,0.11,0.19,0.77-0.38,1.02s-1.38,0.88-1.34,1.08s2.4-1.14,2.65-1.22s2.92-1.15,3.28-1.09s0.1,0.86-1.26,1.4
				c-1.03,0.4-1.6,0.93-1.52,1.18c0.08,0.26,1.03,1.11,0.16,2.56c-0.88,1.45-1.76,2.1-2.89,2.23s-2.26-0.08-3.11,0.18"/>
			<path class="st40" d="M265.55,261.02c0,0,0,6.94-0.91,9.76c0,0-2.59,0.2-6.22-0.08c-1.28-0.09-2.69-0.24-4.16-0.48
				c-0.63-0.11-1.27-0.23-1.93-0.36V258.4C252.34,258.4,259.87,259.07,265.55,261.02z"/>
			<path class="st39" d="M258.42,270.7c-1.28-0.09-2.69-0.24-4.16-0.48l-0.32-0.48l0.82-3.52
				C254.76,266.22,256.7,268.66,258.42,270.7z"/>
			<path class="st40" d="M258.49,307.34c0,0-9.08,5.98-27.1,0.52c0,0,2.93-10.35,1.94-17.12c-0.27-1.87-1.3-4.73-2.65-7.91
				c-0.83-1.94-1.76-3.97-2.73-5.98c-1.66-3.46-3.37-6.78-4.63-9.16c-1.07-2.05-0.13-4.56,2.02-5.41
				c4.88-1.95,14.18-4.67,26.99-3.88c0.78,1.79,2.15,7.82,2.93,8.96c3.86,5.67,3.38,6.28,2.57,10.52
				C256.67,283.83,255.54,298.35,258.49,307.34z"/>
			<path class="st39" d="M231.99,273.03c0,0-0.48,5.67-1.31,9.8c-0.83-1.94-1.76-3.97-2.73-5.98L231.99,273.03z"/>
			<path class="st36" d="M232.51,306.45c0,0-3.2,2.7-4.3,11.96c-1.1,9.26,4.3,37.92,4.3,37.92s8.27,3.97,29.87,0
				c0,0,0.44-34.94-4.41-50.87L232.51,306.45z"/>
			<path class="st34" d="M235.21,256.28c0,0-1.98,3.54-3.33,3.9c0,0,6.28,2.49,10.32,2.15c4.04-0.34,6.08-4.06,6.08-4.06
				s-3.29-0.34-3.74-4.09"/>
			<path class="st34" d="M244.98,248.79c0,0-0.08,0.91-0.16,1.81c-0.08,0.78-0.15,1.54-0.16,1.71c-0.18,1.9-0.11,3.41-0.38,5.95
				l-9.06-1.98c0,0,1.61-1.72,0.53-10.42l9.07,2.88L244.98,248.79z"/>
			<path class="st37" d="M244.98,248.79c0,0-0.08,0.91-0.16,1.81c-1.96,0.05-4.22-0.38-4.22-0.38l4.22-1.49L244.98,248.79z"/>
			<g>
				<path class="st44" d="M237.55,225.89c0,0,2.75-2.01,5.02-0.28c2.27,1.74,2.55,5.34,1.44,7.79s-6.81-5.11-6.81-5.11"/>
				<path class="st34" d="M249.71,246.85c0.05,0.76-0.43,1.46-1.14,1.73c-2.09,0.79-6.67,2.18-11.52,1.47
					c-5.98-0.87-11.77-17.28,0.28-22.84C239.68,226.13,248.9,233.44,249.71,246.85z"/>
				<path class="st44" d="M223.5,237.71c0,0-2.08,0.49-2.62,1.73c0,0,2.53-1.12,3.63-0.21"/>
				<path class="st44" d="M225.42,238.22c0,0-4.53,1.12-7.29-1.98c-3.81-4.28,3.47-13.21,9.41-4.91"/>
				<path class="st45" d="M224.14,239.72c0,0-0.77-0.27-1.01-1.18c-0.34-1.31-0.56-5.34,3-8.89c0,0,0.93-0.84,1.57-0.34"/>
				<path class="st44" d="M236.06,251.35c0,0-9.88-2.79-12.24-12.3c-2.36-9.51,11.99-18.88,18.03-9.83c0,0-4.28,0.91-5.45,4.08
					s-0.43,7.78-1.68,6.99c-1.29-0.81-3.13,0.23-2.85,2.04c0.23,1.48,2.53,3.27,3.7,5.27C236.28,248.81,236.44,250.49,236.06,251.35
					z"/>
				<path class="st44" d="M241.87,227.53c0,0,4.63,4.71-5.1,9.38c0.49-1.85-2.15-6.36-2.15-6.36"/>
			</g>
			<g>
				<path class="st43" d="M199.5,302.18l40.38-9.67c0.39-0.09,0.78,0.15,0.87,0.53l6.57,27.46c0.09,0.39-0.15,0.78-0.53,0.87
					l-40.38,9.67c-0.39,0.09-0.78-0.15-0.87-0.53l-6.57-27.46C198.88,302.66,199.11,302.27,199.5,302.18z"/>
				
					<rect x="203.85" y="298.47" transform="matrix(0.9725 -0.2329 0.2329 0.9725 -66.4782 60.5406)" class="st5" width="38.56" height="26.63"/>
				
					<rect x="241.06" y="303.06" transform="matrix(0.972 -0.2349 0.2349 0.972 -65.62 65.4804)" class="st46" width="1.97" height="10.23"/>
			</g>
			<path class="st34" d="M223.33,297.68c0,0-5.08-0.79-6-2.61c-0.7-1.38,1.56-12.03,2.67-17.02c0.35-1.56,0.59-2.57,0.59-2.57
				l4.85,1.49l4.51,1.39L223.33,297.68z"/>
			<path class="st34" d="M223.18,295.35c0,0,1.32,4.02,1.27,7.38c-0.04,3.36,1.06,18.58,1.06,18.58l-3.05,0.62
				c0,0-6.09-15.02-5.21-28.48L223.18,295.35z"/>
			<path class="st34" d="M222.46,321.92c0,0,0.27,3.22,0.8,4.4c1.36,3.01,5.2,0.14,5.63-0.67c0,0-1.11,0.13-1.9-2.01
				c-0.26-0.72-1.04-1.24-1.2-1.43c-0.16-0.18-0.28-0.91-0.28-0.91"/>
			<path class="st40" d="M223.14,264.54c0,0-2.66,9.13-3.46,14.93c0,0,4.15,1.89,9.66,2.05c0,0,2.09-5.13,2.9-9.78"/>
		</g>
		<g>
			<path class="st4" d="M371.51,400.38c0,0,15.95-0.86,15.97-4.11c0.01-2.52-9.74-0.39-9.74-0.39s10.67-3.1,15.61-5.63
				c1.08-0.56,2.19-1.16,2.94-2.11c0.76-0.95,1.09-2.35,0.47-3.4c-0.83-1.42-2.82-1.54-4.46-1.34c-6.57,0.79-11.19,4.31-17.1,7.28
				c4.33-2.17,8.18-4.96,11.79-8.18c3.32-2.96,7.18-5.74,9.39-9.71c1.39-2.48,1.94-6.15-0.52-8.19c-2.38-1.98-5.79-1.06-8.4-0.14
				c-7.02,2.46-13.17,7.36-17.21,13.59c1.04-2.91,1.85-5.91,2.43-8.95c0.23-1.23,0.32-2.74-0.7-3.46c-1.31-0.94-3.07,0.32-4.09,1.57
				c-2.47,3.03-4.36,6.55-5.53,10.28c0.81-8.37,1.6-16.91-0.22-25.12c-0.42-1.88-0.99-3.77-2.16-5.29
				c-1.17-1.52-3.05-2.62-4.96-2.42c-1.81,0.2-3.3,1.48-4.51,2.84c-3.91,4.38-6.2,10.17-6.35,16.04
				c-0.14,5.87,1.87,11.76,5.56,16.32c-1.94-2.04-4.14-3.84-6.52-5.34c-0.54-0.34-1.32-0.63-1.72-0.14
				c-0.21,0.25-0.2,0.61-0.17,0.94c0.37,3.98,3.04,7.32,5.59,10.39c-5.18-6.05-13.34-9.42-21.28-8.8c-0.96,0.07-2.05,0.29-2.54,1.12
				c-0.28,0.48-0.29,1.07-0.24,1.63c0.42,3.99,3.95,6.89,7.41,8.92c2.91,1.71,5.98,3.14,9.04,4.56c-1.75-0.25-3.53-0.31-5.29-0.19
				c-0.4,0.03-0.85,0.09-1.1,0.41c-0.46,0.61,0.19,1.43,0.81,1.87c4.43,3.2,10,4.76,15.44,4.34"/>
			
				<linearGradient id="SVGID_1_" gradientUnits="userSpaceOnUse" x1="365.8214" y1="155.0728" x2="365.8214" y2="110.5791" gradientTransform="matrix(0.9992 -0.0396 -0.0396 -0.9992 3.574 527.2358)">
				<stop  offset="0.3656" style="stop-color:#86CF94"/>
				<stop  offset="0.9892" style="stop-color:#008166"/>
			</linearGradient>
			<path class="st47" d="M389.62,370.6c0.2-0.14,0.39,0.17,0.2,0.31c-5.07,3.83-9.76,8.14-13.92,12.96
				c-4.19,4.86-7.53,10.16-10.8,15.65c-0.12,0.2-0.42,0.04-0.32-0.17C370.22,387.96,379.47,377.95,389.62,370.6L389.62,370.6z
				 M366.67,374.72c-2.91,7.47-4.66,16.87-4.08,24.91c0.02,0.2,0.31,0.19,0.32-0.01c0.13-8.09,1.34-17.13,4.19-24.74
				C367.18,374.64,366.76,374.48,366.67,374.72L366.67,374.72z M356.57,358.22c-1.37,13.71-0.27,28.32,3.41,41.61
				c0.06,0.22,0.38,0.11,0.33-0.11c-1.39-6.97-2.65-13.93-3.24-21.02c-0.56-6.82-0.5-13.62-0.26-20.46
				C356.82,358.11,356.58,358.08,356.57,358.22L356.57,358.22z M344.18,378.7c4.12,5.85,8.68,16.67,14.09,21.39
				c0.22,0.19,0.5-0.12,0.3-0.33c-4.89-5.37-9.68-15.45-14.06-21.27C344.36,378.29,344.03,378.49,344.18,378.7L344.18,378.7z
				 M388.55,387.76c-8.17,3.68-16.59,8.02-23.51,13.77c-0.21,0.18-0.01,0.54,0.24,0.38c7.62-5.06,14.99-10.04,23.37-13.82
				C388.86,388.01,388.76,387.67,388.55,387.76L388.55,387.76z M337.77,386.76c5.95,3.55,12.3,11.13,18.79,13.61
				c0.2,0.08,0.37-0.21,0.16-0.31c-6.28-3.07-12.7-10.15-18.78-13.62C337.74,386.32,337.57,386.64,337.77,386.76L337.77,386.76z"/>
			<polygon class="st48" points="373.96,437.42 351.39,437.42 345.28,399.43 380.08,399.43 			"/>
			<polygon class="st49" points="373.94,437.42 367.1,437.42 373.24,399.43 380.08,399.43 			"/>
		</g>
		<g>
			<path class="st40" d="M410.98,107.74H362.4c0,0,0.02-0.67,0.48-1.7c2.77-4.07,4.24-6.07,6.85-8.72
				c5.04-1.54,7.62-1.88,15.19-3.11l8.55-0.55c0,0,10.86,2.52,14.51,5.13C409.86,100.92,411.09,103.81,410.98,107.74z"/>
			<path class="st50" d="M394.88,107.74H362.4c0,0,0.03-0.67,0.48-1.7c1.19-0.38,2.69-0.33,3.85-0.03c1.19,0.32,1.98,0.52,1.98,0.52
				s17.02,0,21.12,0C393.96,106.54,394.88,107.74,394.88,107.74z"/>
			<path class="st34" d="M391.27,85.73c0,0,0.41-2.33,0.14-3.74c-0.27-1.41-1.57-3.29-1.7-3.31s-1.83,0.38-1.8,0.45s0,2.53,0,2.53
				s0.61,3.54,0.79,3.9c0.18,0.36,0.91,1.79,1,1.81s0.83-0.27,0.83-0.27L391.27,85.73z"/>
			<path class="st34" d="M386.86,98.5c-1.3,0.08-2.49-0.81-2.79-2.08c-0.1-0.43-0.36-1.04-0.68-1.72c-0.36-0.81-0.79-1.69-1.07-2.42
				l2.85-2.08l6.08-4.47c0,0,0.76,5.7,2.21,7.94C393.47,93.67,393.96,98.1,386.86,98.5z"/>
			<path class="st37" d="M388.25,89.17c-0.17,0.27-2.68,4.06-4.86,5.53c-0.36-0.81-0.79-1.69-1.07-2.42l2.85-2.08L388.25,89.17z"/>
			<path class="st34" d="M390.16,83.1c0.13,1.32,0.17,2.51,0.08,3.37c-0.01,0.11-0.03,0.24-0.06,0.36
				c-0.02,0.11-0.04,0.24-0.08,0.37c-0.96,3.81-12.75,8.19-13.11,7.96c-6.58-4.23-8.87-19.91-8.18-20.95
				c0.75-1.14,10.09-2.23,10.28-2.24c0.19-0.02,9.17,0.63,9.17,0.63S389.71,78.62,390.16,83.1z"/>
			<path class="st38" d="M364.51,70.53c0,0,0.29,6.84,11.53,4.11c3.09-0.75,5.81-1.45,7.34-0.63c2.3,7.23,2.37,10.7,3.19,10.42
				c1.02-0.36-1.74-6.36,1.78-5.71c2.69,0.5,2.92,7.02,2.92,7.02s0.23,0.53,0.32-0.99c0.06-0.91,0.68-15.58-1.55-18.65
				c-2.23-3.08-5.41-1.22-5.41-1.22s0.19-7.42-10.45-1.95c-6.14,3.16-9.11,1.01-9.1,1.2C365.11,64.31,364.04,66.23,364.51,70.53z"/>
			<path class="st34" d="M379.7,156.92c0,0-0.73,0.86-1.37,1.36c-0.64,0.5-0.91,0.5-1.81,0.73c-0.91,0.23-1.68,1.17-1.95,1.49
				c-0.26,0.32,0,0.47,0.56,0.35s1.27-0.56,1.51-0.56c0.23,0,0.23,0.28,0,0.8s-0.88,1.36-1.26,1.66c-0.38,0.29-1.43,0.88-1.55,1.23
				c-0.12,0.35-0.03,0.53,0.53,0.35s1.2-0.64,1.87-1c0.36-0.19,0.53-0.4,0.71-0.55c0.22,0.06,1,0.24,1.55,0.16
				c0.28-0.04,0.53-0.18,0.73-0.32c0.08-0.02,0.16-0.03,0.23-0.05c0.5-0.2,0.76-1.93,1.02-2.4c0.26-0.47,2.48-2.17,2.48-2.17
				L379.7,156.92z"/>
			<path class="st34" d="M366.41,111.09c-0.29-0.03-0.68-0.33-1.17-0.86c-0.16-0.16-0.38-0.43-0.62-0.71
				c-0.22-0.16-0.43-0.3-0.6-0.41c-0.38-0.27-0.78-0.3-0.92-0.3c-0.03,0-0.05,0-0.05,0v-0.02c-2.3-0.05-3.33-1.05-6.15-1.05
				c0,0,6.59-3.17,10.57-0.92c0.41,0.06,1.19,0.17,1.68,0.17c1.16,0.02,0.82,0.6,0.46,0.79c-0.13,0.05-0.44,0.1-0.78,0.14
				c0.02,0.02,0.03,0.03,0.06,0.06c0.17,0.19,0.33,0.38,0.48,0.55c0.51,0.62,1.19,1.43,1.32,1.55c0.17,0.21,0.06,0.33,0.06,0.33
				C371,110.82,368.46,112.1,366.41,111.09z"/>
			
				<linearGradient id="SVGID_2_" gradientUnits="userSpaceOnUse" x1="367.4759" y1="392.625" x2="369.9571" y2="392.625" gradientTransform="matrix(1 0 0 -1 0 500)">
				<stop  offset="0" style="stop-color:#F7941E"/>
				<stop  offset="1" style="stop-color:#F7941E;stop-opacity:0"/>
			</linearGradient>
			<path class="st51" d="M369.62,107.79c-0.13,0.05-0.44,0.1-0.78,0.14c0,0-0.97-0.9-1.36-1.11c0.41,0.06,1.19,0.17,1.68,0.17
				C370.31,107.01,369.98,107.6,369.62,107.79z"/>
			<path class="st34" d="M403.14,140.34c0,0-7.2-1.07-7.74-2.45c-0.32-0.82-0.22-7.39-0.09-12.57c0.02-1.11,0.06-2.16,0.09-3.07
				c0.04-1.99,0.09-3.35,0.09-3.35l13.46,1.26C407.69,125.96,403.14,140.34,403.14,140.34z"/>
			<path class="st34" d="M395.4,137.88c0,0-3.57,2.72-5.47,5c-1.19,1.43-4.89,7.06-7.73,10.95c-1.7,2.34-3.3,3.93-3.3,3.93
				l1.78,1.76c0,0,7.37-4.86,13.44-9.44s7.93-6.27,9.02-9.75C404.22,136.86,397.56,136.12,395.4,137.88z"/>
			<path class="st40" d="M394.88,107.74l0.45,12.32c0,0,7.26,2.54,13.79,0.99c0,0,4.12-9.75,0.85-19.08"/>
			<line class="st24" x1="382.48" y1="131.27" x2="382.48" y2="105.37"/>
		</g>
	</g>
</g>
<g id="DESIGNED_BY_FREEPIK">
</g>
</svg>
